<svg width="111" height="110" viewBox="0 0 111 110" fill="none" xmlns="http://www.w3.org/2000/svg">
<g clip-path="url(#clip0_2457_23171)">
<path d="M29.0226 18.9859H26.779C23.0331 18.9859 19.9963 15.9491 19.9963 12.2031V8.55376C19.9963 8.36757 20.0329 8.1832 20.1042 8.01117C20.1754 7.83914 20.2799 7.68284 20.4115 7.55118C20.5432 7.41952 20.6995 7.31509 20.8715 7.24385C21.0435 7.17261 21.2279 7.13596 21.4141 7.13599H22.2398C25.9858 7.13599 29.0226 10.1728 29.0226 13.9187V18.9859ZM22.3328 25.2934L23.3738 27.2809C25.1118 30.5994 29.211 31.8804 32.5292 30.1423L35.762 28.4491C36.095 28.2746 36.3452 27.9749 36.4573 27.6161C36.5695 27.2572 36.5346 26.8685 36.3602 26.5353L35.9769 25.8037C34.2388 22.4852 30.1397 21.2042 26.8214 22.9423L22.3328 25.2934ZM17.0174 31.9138H14.7736C11.0277 31.9138 7.99093 28.877 7.99093 25.131V21.4817C7.9909 21.2955 8.02755 21.1111 8.09879 20.9391C8.17003 20.767 8.27446 20.6107 8.40612 20.4791C8.53778 20.3474 8.69409 20.243 8.86611 20.1717C9.03814 20.1005 9.22251 20.0639 9.4087 20.0639H10.2345C13.9804 20.0639 17.0172 23.1007 17.0172 26.8466V31.9138H17.0174ZM10.2753 51.3175H8.03157C4.28566 51.3175 1.24886 48.2807 1.24886 44.5348V40.8854C1.24883 40.6992 1.28548 40.5149 1.35672 40.3428C1.42796 40.1708 1.53239 40.0145 1.66405 39.8828C1.79571 39.7512 1.95201 39.6468 2.12404 39.5755C2.29607 39.5043 2.48044 39.4676 2.66664 39.4677H3.49238C7.2383 39.4677 10.2751 42.5045 10.2751 46.2504L10.2753 51.3175ZM10.4969 55.8633L12.6262 56.5705C16.1813 57.751 20.0204 55.826 21.2009 52.271L22.351 48.8076C22.4097 48.6309 22.433 48.4444 22.4196 48.2587C22.4062 48.0729 22.3563 47.8917 22.2729 47.7252C22.1894 47.5588 22.074 47.4104 21.9332 47.2886C21.7924 47.1667 21.629 47.0738 21.4523 47.0152L20.6685 46.7549C17.1135 45.5744 13.2744 47.4994 12.0938 51.0544L10.4969 55.8633ZM15.8806 77.6942L18.1071 77.4174C21.8245 76.9555 24.4637 73.5675 24.0016 69.85L23.5516 66.2285C23.5286 66.0437 23.4695 65.8653 23.3776 65.7033C23.2857 65.5414 23.1628 65.3992 23.0159 65.2847C22.869 65.1703 22.701 65.0859 22.5215 65.0364C22.342 64.987 22.1545 64.9733 21.9697 64.9963L21.1501 65.0981C17.4327 65.56 14.7935 68.9481 15.2557 72.6655L15.8806 77.6942ZM12.721 70.9968L10.6219 71.7892C7.11724 73.1122 3.20366 71.3438 1.88065 67.8394L0.59166 64.4252C0.525878 64.2511 0.495057 64.0656 0.500956 63.8795C0.506855 63.6934 0.549359 63.5103 0.62604 63.3406C0.702722 63.171 0.812078 63.0181 0.947863 62.8907C1.08365 62.7632 1.2432 62.6638 1.41741 62.5981L2.18992 62.3065C5.6946 60.9835 9.60818 62.7519 10.9312 66.2563L12.721 70.9968ZM21.3732 85.6612L19.7867 87.2478C17.1378 89.8967 12.8431 89.8967 10.1945 87.2478L7.61406 84.6674C7.3482 84.4015 7.19885 84.0409 7.19885 83.6649C7.19885 83.2889 7.3482 82.9283 7.61406 82.6624L8.19792 82.0786C10.8468 79.4297 15.1415 79.4297 17.7901 82.0786L21.3732 85.6612ZM35.4799 96.595L34.3846 98.5531C32.556 101.823 28.4232 102.99 25.1538 101.162L21.9688 99.3806C21.6406 99.1971 21.3988 98.8907 21.2965 98.5289C21.1942 98.167 21.2399 97.7794 21.4234 97.4512L21.8265 96.7304C23.6552 93.461 27.7879 92.293 31.0573 94.1215L35.4799 96.595ZM42.0781 99.1785L43.1999 97.2354C45.073 93.9912 43.9614 89.843 40.7171 87.9699L37.5568 86.1452C37.2312 85.9572 36.8442 85.9063 36.481 86.0036C36.1178 86.1009 35.8082 86.3385 35.6202 86.6641L35.2073 87.3792C33.3342 90.6234 34.4458 94.7716 37.6901 96.6447L42.0781 99.1785ZM81.9776 18.9859H84.2212C87.9671 18.9859 91.0039 15.9491 91.0039 12.2031V8.55376C91.0039 8.36757 90.9672 8.1832 90.896 8.01117C90.8248 7.83914 90.7203 7.68284 90.5887 7.55118C90.457 7.41952 90.3007 7.31509 90.1287 7.24385C89.9567 7.17261 89.7723 7.13596 89.5861 7.13599H88.7603C85.0144 7.13599 81.9776 10.1728 81.9776 13.9187V18.9859ZM88.6671 25.2934L87.6262 27.2809C85.8881 30.5994 81.789 31.8804 78.4707 30.1423L75.238 28.4491C75.0731 28.3627 74.9267 28.2447 74.8074 28.1017C74.6881 27.9588 74.5981 27.7938 74.5426 27.6161C74.487 27.4384 74.4671 27.2514 74.4838 27.066C74.5005 26.8806 74.5536 26.7003 74.64 26.5353L75.023 25.8037C76.7611 22.4852 80.8603 21.2042 84.1785 22.9423L88.6671 25.2934ZM93.9826 31.9138H96.2261C99.972 31.9138 103.009 28.877 103.009 25.131V21.4817C103.009 21.2955 102.972 21.1111 102.901 20.9391C102.83 20.767 102.725 20.6107 102.594 20.4791C102.462 20.3474 102.306 20.243 102.134 20.1717C101.962 20.1005 101.777 20.0639 101.591 20.0639H100.765C97.0194 20.0639 93.9826 23.1007 93.9826 26.8466V31.9138ZM100.725 51.3175H102.968C106.714 51.3175 109.751 48.2807 109.751 44.5348V40.8854C109.751 40.6992 109.714 40.5149 109.643 40.3428C109.572 40.1708 109.468 40.0145 109.336 39.8828C109.204 39.7512 109.048 39.6468 108.876 39.5755C108.704 39.5043 108.52 39.4676 108.333 39.4677H107.508C103.762 39.4677 100.725 42.5045 100.725 46.2504V51.3175ZM100.503 55.8633L98.3738 56.5705C94.8187 57.751 90.9796 55.826 89.799 52.271L88.649 48.8076C88.5903 48.6309 88.567 48.4444 88.5804 48.2587C88.5938 48.0729 88.6436 47.8917 88.7271 47.7252C88.8105 47.5588 88.926 47.4104 89.0667 47.2886C89.2075 47.1667 89.371 47.0738 89.5477 47.0152L90.3314 46.7549C93.8865 45.5744 97.7256 47.4994 98.9061 51.0544L100.503 55.8633ZM95.1194 77.6942L92.8928 77.4176C89.1754 76.9557 86.5363 73.5677 86.9984 69.8503L87.4484 66.2287C87.4713 66.0439 87.5304 65.8655 87.6224 65.7036C87.7143 65.5416 87.8372 65.3994 87.9841 65.285C88.131 65.1705 88.299 65.0862 88.4785 65.0367C88.658 64.9872 88.8455 64.9735 89.0303 64.9965L89.8499 65.0983C93.5673 65.5603 96.2064 68.9483 95.7443 72.6657L95.1194 77.6942ZM98.279 70.9968L100.378 71.7892C103.883 73.1122 107.796 71.3438 109.119 67.8394L110.408 64.4252C110.474 64.2511 110.505 64.0656 110.499 63.8795C110.493 63.6934 110.451 63.5103 110.374 63.3406C110.297 63.171 110.188 63.0181 110.052 62.8907C109.916 62.7632 109.757 62.6638 109.583 62.5981L108.81 62.3065C105.305 60.9835 101.392 62.7519 100.069 66.2563L98.279 70.9968ZM89.627 85.6612L91.2135 87.2478C93.8624 89.8967 98.157 89.8967 100.806 87.2478L103.386 84.6674C103.652 84.4015 103.801 84.0409 103.801 83.6649C103.801 83.2889 103.652 82.9283 103.386 82.6624L102.802 82.0786C100.153 79.4297 95.8587 79.4297 93.2101 82.0786L89.627 85.6612ZM75.5201 96.595L76.6153 98.5531C78.444 101.823 82.5767 102.99 85.8461 101.162L89.0312 99.3806C89.3594 99.1971 89.6012 98.8907 89.7035 98.5289C89.8057 98.167 89.7601 97.7794 89.5766 97.4512L89.1734 96.7304C87.3448 93.461 83.2121 92.293 79.9426 94.1215L75.5201 96.595ZM68.9218 99.1785L67.8001 97.2354C65.927 93.9912 67.0386 89.843 70.2828 87.9699L73.4431 86.1452C73.7688 85.9572 74.1557 85.9063 74.5189 86.0036C74.8821 86.1009 75.1918 86.3385 75.3798 86.6641L75.7927 87.3792C77.6657 90.6234 76.5541 94.7716 73.3099 96.6447L68.9218 99.1785Z" fill="#FEE45A"/>
<path d="M58.2743 26.4179L63.8257 37.6665C64.0477 38.1163 64.3758 38.5053 64.7816 38.8002C65.1874 39.095 65.6588 39.2867 66.1552 39.3589L78.5686 41.1626C81.1061 41.5312 82.1192 44.6496 80.2833 46.4396L71.3008 55.1954C70.9416 55.5455 70.6729 55.9777 70.5178 56.4548C70.3628 56.9318 70.3261 57.4394 70.4109 57.9338L72.5314 70.297C72.9648 72.8242 70.3122 74.7516 68.0426 73.5583L56.9396 67.7211C56.4956 67.4876 56.0016 67.3657 55.5 67.3657C54.9984 67.3657 54.5043 67.4876 54.0603 67.7211L42.9573 73.5583C40.6877 74.7514 38.0351 72.8242 38.4685 70.297L40.589 57.9338C40.6738 57.4394 40.6371 56.9318 40.4821 56.4548C40.3271 55.9777 40.0584 55.5455 39.6992 55.1954L30.7167 46.4396C28.8805 44.6498 29.8938 41.5315 32.4314 41.1626L44.8448 39.3589C45.3411 39.2867 45.8125 39.095 46.2183 38.8001C46.6241 38.5053 46.9522 38.1163 47.1742 37.6665L52.7256 26.4179C53.8606 24.1185 57.1393 24.1185 58.2743 26.4179Z" fill="#FED402"/>
<path d="M51.4935 61.2567C51.5783 60.7623 51.5416 60.2547 51.3866 59.7777C51.2316 59.3006 50.9629 58.8684 50.6037 58.5183L41.6212 49.7624C39.785 47.9727 40.7983 44.8543 43.3359 44.4854L55.7493 42.6817C56.2456 42.6096 56.717 42.4178 57.1228 42.123C57.5287 41.8282 57.8567 41.4391 58.0787 40.9894L61.7721 33.5057L58.274 26.4179C57.1392 24.1185 53.8603 24.1185 52.7255 26.4179L47.1741 37.6665C46.9521 38.1163 46.6241 38.5053 46.2183 38.8002C45.8124 39.095 45.341 39.2867 44.8447 39.3589L32.4313 41.1626C29.8937 41.5312 28.8806 44.6496 30.7166 46.4396L39.6991 55.1954C40.0583 55.5455 40.327 55.9777 40.482 56.4548C40.637 56.9318 40.6737 57.4394 40.5889 57.9338L38.4684 70.297C38.035 72.8242 40.6876 74.7516 42.9572 73.5583L50.0205 69.8448L51.4935 61.2567Z" fill="#FAC600"/>
<path d="M55.4999 102.864C29.6494 102.864 8.61841 81.8332 8.61841 55.9827C8.61841 46.2911 11.5512 36.9901 17.0995 29.0847C22.5223 21.3583 30.0333 15.5056 38.8203 12.1591C39.2299 12.0073 39.6828 12.0235 40.0806 12.204C40.4783 12.3845 40.7887 12.7148 40.9442 13.123C41.0996 13.5311 41.0876 13.9842 40.9108 14.3836C40.7339 14.7829 40.4065 15.0963 39.9997 15.2555C31.8337 18.3654 24.8528 23.8057 19.8117 30.988C14.6569 38.3327 11.9322 46.9757 11.9322 55.9825C11.9322 80.0059 31.4767 99.5504 55.5001 99.5504C79.5235 99.5504 99.0679 80.0059 99.0679 55.9825C99.0679 46.9757 96.3433 38.333 91.1884 30.988C86.1473 23.8055 79.1665 18.3654 71.0004 15.2555C70.1453 14.9299 69.7163 13.9727 70.0419 13.1176C70.3675 12.2625 71.3247 11.8332 72.1799 12.1591C80.9669 15.5054 88.4779 21.3583 93.9007 29.0847C99.449 36.9901 102.382 46.2911 102.382 55.9827C102.381 81.8332 81.3503 102.864 55.4999 102.864Z" fill="#FED402"/>
</g>
<defs>
<clipPath id="clip0_2457_23171">
<rect width="110" height="110" fill="white" transform="translate(0.5)"/>
</clipPath>
</defs>
</svg>
