<svg width="20" height="20" viewBox="0 0 20 20" fill="none" xmlns="http://www.w3.org/2000/svg">
<g opacity="0.2">
<mask id="path-1-inside-1_1840_15984" fill="white">
<path d="M16.87 5.75804L10.3075 2.04881C10.2137 1.99577 10.1078 1.9679 10 1.9679C9.89223 1.9679 9.78628 1.99577 9.69246 2.04881L3.12996 5.75804C3.03361 5.8125 2.95345 5.89157 2.89767 5.98717C2.84189 6.08276 2.8125 6.19146 2.8125 6.30213V13.6978C2.8125 13.8085 2.8419 13.9172 2.89767 14.0128C2.95345 14.1084 3.03361 14.1874 3.12996 14.2419L9.69246 17.9511C9.78628 18.0042 9.89223 18.032 10 18.032C10.1078 18.032 10.2137 18.0042 10.3075 17.9511L16.87 14.2419C16.9664 14.1874 17.0465 14.1084 17.1023 14.0128C17.1581 13.9172 17.1875 13.8085 17.1875 13.6978V6.30213C17.1875 6.19146 17.1581 6.08276 17.1023 5.98717C17.0466 5.89157 16.9664 5.8125 16.87 5.75804ZM10 12.8125C9.44374 12.8125 8.89997 12.6475 8.43746 12.3385C7.97495 12.0294 7.61446 11.5902 7.40159 11.0763C7.18872 10.5623 7.13302 9.99685 7.24154 9.45128C7.35006 8.90571 7.61793 8.40457 8.01126 8.01123C8.4046 7.6179 8.90574 7.35003 9.45131 7.24151C9.99688 7.13299 10.5624 7.18869 11.0763 7.40156C11.5902 7.61443 12.0295 7.97492 12.3385 8.43743C12.6475 8.89994 12.8125 9.44371 12.8125 9.99997C12.8125 10.3693 12.7398 10.735 12.5984 11.0763C12.4571 11.4175 12.2499 11.7275 11.9887 11.9887C11.7276 12.2499 11.4175 12.457 11.0763 12.5984C10.7351 12.7397 10.3693 12.8125 10 12.8125Z"/>
</mask>
<path d="M16.87 5.75804L10.3075 2.04881C10.2137 1.99577 10.1078 1.9679 10 1.9679C9.89223 1.9679 9.78628 1.99577 9.69246 2.04881L3.12996 5.75804C3.03361 5.8125 2.95345 5.89157 2.89767 5.98717C2.84189 6.08276 2.8125 6.19146 2.8125 6.30213V13.6978C2.8125 13.8085 2.8419 13.9172 2.89767 14.0128C2.95345 14.1084 3.03361 14.1874 3.12996 14.2419L9.69246 17.9511C9.78628 18.0042 9.89223 18.032 10 18.032C10.1078 18.032 10.2137 18.0042 10.3075 17.9511L16.87 14.2419C16.9664 14.1874 17.0465 14.1084 17.1023 14.0128C17.1581 13.9172 17.1875 13.8085 17.1875 13.6978V6.30213C17.1875 6.19146 17.1581 6.08276 17.1023 5.98717C17.0466 5.89157 16.9664 5.8125 16.87 5.75804ZM10 12.8125C9.44374 12.8125 8.89997 12.6475 8.43746 12.3385C7.97495 12.0294 7.61446 11.5902 7.40159 11.0763C7.18872 10.5623 7.13302 9.99685 7.24154 9.45128C7.35006 8.90571 7.61793 8.40457 8.01126 8.01123C8.4046 7.6179 8.90574 7.35003 9.45131 7.24151C9.99688 7.13299 10.5624 7.18869 11.0763 7.40156C11.5902 7.61443 12.0295 7.97492 12.3385 8.43743C12.6475 8.89994 12.8125 9.44371 12.8125 9.99997C12.8125 10.3693 12.7398 10.735 12.5984 11.0763C12.4571 11.4175 12.2499 11.7275 11.9887 11.9887C11.7276 12.2499 11.4175 12.457 11.0763 12.5984C10.7351 12.7397 10.3693 12.8125 10 12.8125Z" fill="#5B6671"/>
<path d="M10.3075 2.04881L9.6924 3.13697L9.69247 3.13701L10.3075 2.04881ZM10 1.9679V0.717896V1.9679ZM9.69246 2.04881L10.3075 3.13701L10.3076 3.13697L9.69246 2.04881ZM3.12996 5.75804L2.51489 4.66983L2.51486 4.66985L3.12996 5.75804ZM2.8125 6.30213L1.5625 6.30211V6.30213H2.8125ZM2.8125 13.6978H1.5625V13.6978L2.8125 13.6978ZM3.12996 14.2419L2.51483 15.3301L2.51489 15.3301L3.12996 14.2419ZM9.69246 17.9511L10.3076 16.863L10.3075 16.8629L9.69246 17.9511ZM10 18.032V16.782V18.032ZM10.3075 17.9511L9.69247 16.8629L9.69245 16.863L10.3075 17.9511ZM16.87 14.2419L17.4851 15.3301L17.4852 15.3301L16.87 14.2419ZM17.1875 13.6978L18.4375 13.6978V13.6978H17.1875ZM17.1875 6.30213H18.4375V6.30211L17.1875 6.30213ZM12.8125 9.99997H11.5625V9.99997L12.8125 9.99997ZM17.4851 4.66983L10.9226 0.960601L9.69247 3.13701L16.255 6.84624L17.4851 4.66983ZM10.9227 0.96064C10.6412 0.801517 10.3233 0.717896 10 0.717896V3.2179C9.89221 3.2179 9.78624 3.19002 9.6924 3.13697L10.9227 0.96064ZM10 0.717896C9.67666 0.717896 9.3588 0.801517 9.07732 0.96064L10.3076 3.13697C10.2138 3.19002 10.1078 3.2179 10 3.2179V0.717896ZM9.07739 0.960601L2.51489 4.66983L3.74503 6.84624L10.3075 3.13701L9.07739 0.960601ZM2.51486 4.66985C2.22581 4.83323 1.98533 5.07044 1.81801 5.35722L3.97733 6.61711C3.92156 6.7127 3.84141 6.79176 3.74506 6.84622L2.51486 4.66985ZM1.81801 5.35722C1.65068 5.64401 1.56251 5.97008 1.5625 6.30211L4.0625 6.30216C4.0625 6.41283 4.03311 6.52152 3.97733 6.61711L1.81801 5.35722ZM1.5625 6.30213V13.6978H4.0625V6.30213H1.5625ZM1.5625 13.6978C1.56251 14.0299 1.65068 14.3559 1.818 14.6427L3.97734 13.3828C4.03311 13.4784 4.0625 13.5871 4.0625 13.6978L1.5625 13.6978ZM1.818 14.6427C1.98532 14.9295 2.22579 15.1667 2.51483 15.3301L3.74509 13.1537C3.84142 13.2082 3.92157 13.2873 3.97734 13.3828L1.818 14.6427ZM2.51489 15.3301L9.07739 19.0393L10.3075 16.8629L3.74503 13.1537L2.51489 15.3301ZM9.07737 19.0393C9.35884 19.1984 9.67667 19.282 10 19.282V16.782C10.1078 16.782 10.2137 16.8099 10.3076 16.863L9.07737 19.0393ZM10 19.282C10.3233 19.282 10.6412 19.1984 10.9226 19.0393L9.69245 16.863C9.78628 16.8099 9.89222 16.782 10 16.782V19.282ZM10.9226 19.0393L17.4851 15.3301L16.255 13.1537L9.69247 16.8629L10.9226 19.0393ZM17.4852 15.3301C17.7742 15.1667 18.0147 14.9295 18.182 14.6427L16.0227 13.3828C16.0784 13.2873 16.1586 13.2082 16.2549 13.1537L17.4852 15.3301ZM18.182 14.6427C18.3493 14.3559 18.4375 14.0299 18.4375 13.6978L15.9375 13.6978C15.9375 13.5871 15.9669 13.4784 16.0227 13.3828L18.182 14.6427ZM18.4375 13.6978V6.30213H15.9375V13.6978H18.4375ZM18.4375 6.30211C18.4375 5.97008 18.3493 5.64401 18.182 5.35723L16.0227 6.6171C15.9669 6.52152 15.9375 6.41283 15.9375 6.30216L18.4375 6.30211ZM18.182 5.35723C18.0147 5.07045 17.7742 4.83324 17.4852 4.66985L16.2549 6.84622C16.1586 6.79176 16.0784 6.71269 16.0227 6.6171L18.182 5.35723ZM10 11.5625C9.69097 11.5625 9.38887 11.4708 9.13192 11.2991L7.743 13.3778C8.41107 13.8242 9.19651 14.0625 10 14.0625V11.5625ZM9.13192 11.2991C8.87497 11.1275 8.6747 10.8834 8.55644 10.5979L6.24674 11.5546C6.55422 12.2969 7.07492 12.9314 7.743 13.3778L9.13192 11.2991ZM8.55644 10.5979C8.43818 10.3124 8.40723 9.99824 8.46752 9.69514L6.01556 9.20741C5.85881 9.99546 5.93926 10.8123 6.24674 11.5546L8.55644 10.5979ZM8.46752 9.69514C8.52781 9.39205 8.67663 9.11364 8.89515 8.89512L7.12738 7.12735C6.55923 7.6955 6.17231 8.41937 6.01556 9.20741L8.46752 9.69514ZM8.89515 8.89512C9.11367 8.6766 9.39208 8.52778 9.69517 8.46749L9.20744 6.01553C8.4194 6.17228 7.69553 6.5592 7.12738 7.12735L8.89515 8.89512ZM9.69517 8.46749C9.99827 8.4072 10.3124 8.43815 10.5979 8.55641L11.5547 6.24671C10.8123 5.93923 9.99549 5.85878 9.20744 6.01553L9.69517 8.46749ZM10.5979 8.55641C10.8835 8.67467 11.1275 8.87494 11.2992 9.13189L13.3778 7.74297C12.9315 7.07489 12.297 6.55419 11.5547 6.24671L10.5979 8.55641ZM11.2992 9.13189C11.4709 9.38884 11.5625 9.69094 11.5625 9.99997H14.0625C14.0625 9.19648 13.8242 8.41104 13.3778 7.74297L11.2992 9.13189ZM11.5625 9.99997C11.5625 10.2052 11.5221 10.4083 11.4436 10.5979L13.7533 11.5546C13.9574 11.0617 14.0625 10.5335 14.0625 9.99997L11.5625 9.99997ZM11.4436 10.5979C11.365 10.7875 11.2499 10.9597 11.1049 11.1048L12.8726 12.8726C13.2499 12.4954 13.5491 12.0475 13.7533 11.5546L11.4436 10.5979ZM11.1049 11.1048C10.9598 11.2499 10.7875 11.365 10.5979 11.4435L11.5547 13.7532C12.0475 13.5491 12.4954 13.2498 12.8726 12.8726L11.1049 11.1048ZM10.5979 11.4435C10.4084 11.5221 10.2052 11.5625 10 11.5625L10 14.0625C10.5335 14.0625 11.0618 13.9574 11.5547 13.7532L10.5979 11.4435Z" fill="#5B6671" mask="url(#path-1-inside-1_1840_15984)"/>
</g>
<path d="M17.1875 13.6978V6.30213C17.1875 6.19145 17.1581 6.08276 17.1023 5.98716C17.0466 5.89157 16.9664 5.81249 16.87 5.75803L10.3075 2.04879C10.2137 1.99576 10.1078 1.9679 10 1.9679C9.89223 1.9679 9.78629 1.99576 9.69246 2.04879L3.12996 5.75803C3.03361 5.81249 2.95345 5.89157 2.89767 5.98716C2.84189 6.08276 2.8125 6.19145 2.8125 6.30213V13.6978C2.8125 13.8085 2.84189 13.9172 2.89767 14.0128C2.95345 14.1084 3.03361 14.1874 3.12996 14.2419L9.69246 17.9511C9.78629 18.0042 9.89223 18.032 10 18.032C10.1078 18.032 10.2137 18.0042 10.3075 17.9511L16.87 14.2419C16.9664 14.1874 17.0466 14.1084 17.1023 14.0128C17.1581 13.9172 17.1875 13.8085 17.1875 13.6978V13.6978Z" stroke="#5B6671" stroke-width="1.25" stroke-linecap="round" stroke-linejoin="round"/>
<path d="M10 12.8125C11.5533 12.8125 12.8125 11.5533 12.8125 10C12.8125 8.4467 11.5533 7.1875 10 7.1875C8.4467 7.1875 7.1875 8.4467 7.1875 10C7.1875 11.5533 8.4467 12.8125 10 12.8125Z" stroke="#5B6671" stroke-width="1.25" stroke-linecap="round" stroke-linejoin="round"/>
</svg>
