<svg width="24" height="24" viewBox="0 0 24 24" fill="none" xmlns="http://www.w3.org/2000/svg">
<path d="M6.75 5.3125H6.8125V5.25V3.75007C6.81294 3.36894 6.96453 3.00354 7.23404 2.73404C7.50354 2.46453 7.86894 2.31294 8.25007 2.3125L15.75 2.3125C15.9323 2.3125 16.1072 2.38494 16.2362 2.51387L19.9862 6.26388C20.1151 6.39281 20.1875 6.56767 20.1875 6.75V17.2499C20.1871 17.6311 20.0355 17.9965 19.766 18.266C19.4965 18.5355 19.1311 18.6871 18.7499 18.6875H17.25H17.1875V18.75V20.2499C17.1871 20.6311 17.0355 20.9965 16.766 21.266C16.4965 21.5355 16.1311 21.6871 15.7499 21.6875H5.25007C4.86894 21.6871 4.50354 21.5355 4.23404 21.266C3.96453 20.9965 3.81294 20.6311 3.8125 20.2499L3.8125 6.75004C3.81295 6.36892 3.96454 6.00353 4.23404 5.73404C4.50354 5.46453 4.86894 5.31294 5.25007 5.3125H6.75ZM18.75 17.3125H18.8125V17.25V7.06069V7.0348L18.7942 7.01649L15.4836 3.70581L15.4653 3.6875H15.4394H8.25H8.1875V3.75V5.25V5.3125H8.25H12.75C12.9323 5.3125 13.1072 5.38494 13.2362 5.51388L16.9862 9.26387C17.1151 9.39281 17.1875 9.56767 17.1875 9.75V17.25V17.3125H17.25H18.75ZM8.25 18.0625H12.75C12.9655 18.0625 13.1722 17.9769 13.3245 17.8245C13.4769 17.6722 13.5625 17.4655 13.5625 17.25C13.5625 17.0345 13.4769 16.8278 13.3245 16.6755C13.1722 16.5231 12.9655 16.4375 12.75 16.4375H8.25C8.03451 16.4375 7.82785 16.5231 7.67548 16.6755C7.5231 16.8278 7.4375 17.0345 7.4375 17.25C7.4375 17.4655 7.5231 17.6722 7.67548 17.8245C7.82785 17.9769 8.03451 18.0625 8.25 18.0625ZM8.25 15.0625H12.75C12.9655 15.0625 13.1722 14.9769 13.3245 14.8245C13.4769 14.6722 13.5625 14.4655 13.5625 14.25C13.5625 14.0345 13.4769 13.8278 13.3245 13.6755C13.1722 13.5231 12.9655 13.4375 12.75 13.4375H8.25C8.03451 13.4375 7.82785 13.5231 7.67548 13.6755C7.5231 13.8278 7.4375 14.0345 7.4375 14.25C7.4375 14.4655 7.5231 14.6722 7.67548 14.8245C7.82785 14.9769 8.03451 15.0625 8.25 15.0625Z" fill="#0080F9" stroke="#0080F9" stroke-width="0.125"/>
</svg>
