<svg width="24" height="24" viewBox="0 0 24 24" fill="none" xmlns="http://www.w3.org/2000/svg">
<path d="M6.61792 3.94495C8.21101 2.88049 10.084 2.31232 12 2.31232C14.5683 2.31529 17.0307 3.3369 18.8468 5.15302C20.6629 6.96915 21.6845 9.4315 21.6875 11.9999C21.6875 13.9159 21.1193 15.7888 20.0549 17.3819C18.9904 18.975 17.4774 20.2167 15.7073 20.9499C13.9371 21.6831 11.9893 21.875 10.1101 21.5012C8.23088 21.1274 6.50473 20.2047 5.14991 18.8499C3.79509 17.4951 2.87244 15.7689 2.49865 13.8898C2.12485 12.0106 2.3167 10.0627 3.04992 8.29257C3.78315 6.52241 5.02482 5.00943 6.61792 3.94495ZM12.8125 15.7498V12.8123H15.75C15.9655 12.8123 16.1722 12.7267 16.3245 12.5743C16.4769 12.422 16.5625 12.2153 16.5625 11.9998C16.5625 11.7843 16.4769 11.5777 16.3245 11.4253C16.1722 11.2729 15.9655 11.1873 15.75 11.1873H12.8125V8.24982C12.8125 8.03433 12.7269 7.82766 12.5745 7.67529C12.4222 7.52292 12.2155 7.43732 12 7.43732C11.7845 7.43732 11.5779 7.52292 11.4255 7.67529C11.2731 7.82766 11.1875 8.03433 11.1875 8.24982V11.1873H8.25C8.03452 11.1873 7.82785 11.2729 7.67548 11.4253C7.52311 11.5777 7.4375 11.7843 7.4375 11.9998C7.4375 12.2153 7.52311 12.422 7.67548 12.5743C7.82785 12.7267 8.03452 12.8123 8.25 12.8123H11.1875V15.7498C11.1875 15.9653 11.2731 16.172 11.4255 16.3243C11.5779 16.4767 11.7845 16.5623 12 16.5623C12.2155 16.5623 12.4222 16.4767 12.5745 16.3243C12.7269 16.172 12.8125 15.9653 12.8125 15.7498Z" fill="#0080F9" stroke="#0080F9" stroke-width="0.125"/>
</svg>
