<svg width="21" height="20" viewBox="0 0 21 20" fill="none" xmlns="http://www.w3.org/2000/svg">
<path d="M18.2376 16.2487V16.3112H18.3001H18.9256C19.0748 16.3112 19.2179 16.3705 19.3233 16.4759C19.4288 16.5814 19.4881 16.7245 19.4881 16.8737C19.4881 17.0229 19.4288 17.1659 19.3233 17.2714C19.2179 17.3769 19.0748 17.4362 18.9256 17.4362H1.4256C1.27641 17.4362 1.13334 17.3769 1.02785 17.2714C0.922361 17.1659 0.863098 17.0229 0.863098 16.8737C0.863098 16.7245 0.922361 16.5814 1.02785 16.4759C1.13334 16.3705 1.27641 16.3112 1.4256 16.3112H2.05014H2.11264V16.2487V3.12376C2.113 2.80891 2.23823 2.50705 2.46087 2.28442C2.6835 2.06178 2.98536 1.93655 3.30021 1.93619L10.8001 1.93619C11.1149 1.93656 11.4168 2.06179 11.6394 2.28442C11.862 2.50705 11.9873 2.80891 11.9876 3.12376V6.87369V6.93619H12.0501H17.0501C17.3649 6.93655 17.6668 7.06178 17.8894 7.28442C18.112 7.50705 18.2373 7.80891 18.2376 8.12376V16.2487ZM12.0501 8.06119H11.9876V8.12369V16.2487V16.3112H12.0501H17.0501H17.1126V16.2487V8.12369V8.06119H17.0501H12.0501ZM9.41127 11.1098C9.54021 10.9809 9.61264 10.806 9.61264 10.6237C9.61264 10.4413 9.54021 10.2665 9.41127 10.1376C9.28234 10.0086 9.10748 9.93619 8.92514 9.93619H6.42514C6.2428 9.93619 6.06794 10.0086 5.939 10.1376C5.81007 10.2665 5.73764 10.4413 5.73764 10.6237C5.73764 10.806 5.81007 10.9809 5.939 11.1098C6.06794 11.2388 6.2428 11.3112 6.42514 11.3112H8.92514C9.10748 11.3112 9.28234 11.2388 9.41127 11.1098ZM7.67514 4.93619H5.17514C4.9928 4.93619 4.81794 5.00862 4.689 5.13755C4.56007 5.26648 4.48764 5.44135 4.48764 5.62369C4.48764 5.80602 4.56007 5.98089 4.689 6.10982C4.81794 6.23875 4.9928 6.31119 5.17514 6.31119H7.67514C7.85748 6.31119 8.03234 6.23875 8.16128 6.10982C8.29021 5.98089 8.36264 5.80602 8.36264 5.62369C8.36264 5.44135 8.29021 5.26648 8.16128 5.13755C8.03234 5.00862 7.85748 4.93619 7.67514 4.93619ZM7.67514 13.0612H5.17514C4.9928 13.0612 4.81794 13.1336 4.689 13.2626C4.56007 13.3915 4.48764 13.5664 4.48764 13.7487C4.48764 13.931 4.56007 14.1059 4.689 14.2348C4.81794 14.3638 4.9928 14.4362 5.17514 14.4362H7.67514C7.85748 14.4362 8.03234 14.3638 8.16128 14.2348C8.29021 14.1059 8.36264 13.931 8.36264 13.7487C8.36264 13.5664 8.29021 13.3915 8.16128 13.2626C8.03234 13.1336 7.85748 13.0612 7.67514 13.0612Z" fill="#CCE6FE" stroke="#CCE6FE" stroke-width="0.125"/>
<path d="M15.1752 13.1237H13.9252C13.7594 13.1237 13.6005 13.1895 13.4833 13.3067C13.366 13.424 13.3002 13.5829 13.3002 13.7487C13.3002 13.9144 13.366 14.0734 13.4833 14.1906C13.6005 14.3078 13.7594 14.3737 13.9252 14.3737H15.1752C15.341 14.3737 15.4999 14.3078 15.6171 14.1906C15.7344 14.0734 15.8002 13.9144 15.8002 13.7487C15.8002 13.5829 15.7344 13.424 15.6171 13.3067C15.4999 13.1895 15.341 13.1237 15.1752 13.1237Z" fill="#CCE6FE"/>
<path d="M13.9252 11.2487H15.1752C15.341 11.2487 15.4999 11.1828 15.6171 11.0656C15.7344 10.9484 15.8002 10.7894 15.8002 10.6237C15.8002 10.4579 15.7344 10.299 15.6171 10.1817C15.4999 10.0645 15.341 9.99869 15.1752 9.99869H13.9252C13.7594 9.99869 13.6005 10.0645 13.4833 10.1817C13.366 10.299 13.3002 10.4579 13.3002 10.6237C13.3002 10.7894 13.366 10.9484 13.4833 11.0656C13.6005 11.1828 13.7594 11.2487 13.9252 11.2487Z" fill="#CCE6FE"/>
</svg>
