<svg width="413" height="106" viewBox="0 0 413 106" fill="none" xmlns="http://www.w3.org/2000/svg">
<path d="M49.56 60.0973C33.04 68.9126 9.63667 67.4434 0 65.6068V106L413 102V4C393.727 22.5322 377.207 18.5252 357.933 16.0209C316.633 13.5165 300.113 34.553 272.58 41.0643C245.047 47.5756 224.397 44.0696 203.747 32.5496C183.097 21.0296 162.447 24.0348 145.927 40.0626C129.407 56.0904 114.263 52.5843 100.497 51.0817C86.73 49.5791 70.21 49.0781 49.56 60.0973Z" fill="url(#paint0_linear_308_22597)"/>
<g filter="url(#filter0_d_308_22597)">
<path d="M0 65.6068C9.63667 67.4434 33.04 68.9126 49.56 60.0973C70.21 49.0781 86.73 49.5791 100.497 51.0817C114.263 52.5843 129.407 56.0904 145.927 40.0626C162.447 24.0348 183.097 21.0296 203.747 32.5496C224.397 44.0696 245.047 47.5757 272.58 41.0643C300.113 34.553 316.633 13.5165 357.933 16.0209C377.207 18.5252 393.727 22.5322 413 4" stroke="#0080F9" stroke-width="3" stroke-linecap="round"/>
</g>
<defs>
<filter id="filter0_d_308_22597" x="-6.50024" y="0.5" width="426" height="76" filterUnits="userSpaceOnUse" color-interpolation-filters="sRGB">
<feFlood flood-opacity="0" result="BackgroundImageFix"/>
<feColorMatrix in="SourceAlpha" type="matrix" values="0 0 0 0 0 0 0 0 0 0 0 0 0 0 0 0 0 0 127 0" result="hardAlpha"/>
<feOffset dy="3"/>
<feGaussianBlur stdDeviation="2.5"/>
<feColorMatrix type="matrix" values="0 0 0 0 0 0 0 0 0 0 0 0 0 0 0 0 0 0 0.1 0"/>
<feBlend mode="normal" in2="BackgroundImageFix" result="effect1_dropShadow_308_22597"/>
<feBlend mode="normal" in="SourceGraphic" in2="effect1_dropShadow_308_22597" result="shape"/>
</filter>
<linearGradient id="paint0_linear_308_22597" x1="206.5" y1="106" x2="206.061" y2="3.99944" gradientUnits="userSpaceOnUse">
<stop stop-color="white" stop-opacity="0"/>
<stop offset="0.983831" stop-color="#B7CFFE" stop-opacity="0.7"/>
</linearGradient>
</defs>
</svg>
