<svg width="20" height="20" viewBox="0 0 20 20" fill="none" xmlns="http://www.w3.org/2000/svg">
<path opacity="0.2" d="M16.2478 9.02642V16.2499M16.2478 9.02642L16.2478 9.02641L16.2478 16.2499M16.2478 9.02642L9.99737 3.34399L3.7478 9.0264V16.2499M16.2478 9.02642L3.7478 16.2499M16.2478 16.2499L12.4973 16.2494V11.8743V11.2493H11.8723H8.12235H7.49735V11.8743V16.2494L3.7478 16.2499M16.2478 16.2499H3.7478" fill="#5B6671" stroke="#5B6671" stroke-width="1.25"/>
<path d="M16.8728 16.875V9.02642C16.8728 8.93934 16.8546 8.85322 16.8194 8.77358C16.7841 8.69395 16.7327 8.62255 16.6682 8.56397L10.4178 2.88154C10.3028 2.77694 10.1528 2.71899 9.99735 2.71899C9.84186 2.719 9.69196 2.77696 9.57691 2.88157L3.32734 8.56397C3.26292 8.62255 3.21144 8.69395 3.17622 8.77358C3.141 8.85321 3.1228 8.93932 3.1228 9.0264V16.875" stroke="#5B6671" stroke-width="1.25" stroke-linecap="round" stroke-linejoin="round"/>
<path d="M1.2478 16.875H18.7478" stroke="#5B6671" stroke-width="1.25" stroke-linecap="round" stroke-linejoin="round"/>
<path d="M11.8723 16.8743V12.4993C11.8723 12.3335 11.8065 12.1745 11.6893 12.0573C11.572 11.9401 11.4131 11.8743 11.2473 11.8743H8.74731C8.58155 11.8743 8.42258 11.9401 8.30537 12.0573C8.18816 12.1745 8.12231 12.3335 8.12231 12.4993V16.8743" stroke="#5B6671" stroke-width="1.25" stroke-linecap="round" stroke-linejoin="round"/>
</svg>
