<svg width="20" height="20" viewBox="0 0 20 20" fill="none" xmlns="http://www.w3.org/2000/svg">
<path opacity="0.2" d="M14.375 3.125V16.875C14.375 17.2202 14.0952 17.5 13.75 17.5H6.25C5.90482 17.5 5.625 17.2202 5.625 16.875L5.625 3.125C5.625 2.77982 5.90482 2.5 6.25 2.5L13.75 2.5C14.0952 2.5 14.375 2.77982 14.375 3.125Z" fill="white" stroke="white" stroke-width="1.25"/>
<path d="M15 16.875L15 3.125C15 2.43464 14.4404 1.875 13.75 1.875L6.25 1.875C5.55964 1.875 5 2.43464 5 3.125L5 16.875C5 17.5654 5.55964 18.125 6.25 18.125H13.75C14.4404 18.125 15 17.5654 15 16.875Z" stroke="white" stroke-width="1.25" stroke-linecap="round" stroke-linejoin="round"/>
<path d="M7.5 4.375H12.5" stroke="white" stroke-width="1.25" stroke-linecap="round" stroke-linejoin="round"/>
</svg>
