<svg width="21" height="20" viewBox="0 0 21 20" fill="none" xmlns="http://www.w3.org/2000/svg">
<path d="M6.77686 9.03656C6.68944 8.94916 6.62991 8.8378 6.60578 8.71656C6.58166 8.59532 6.59403 8.46965 6.64133 8.35544C6.68863 8.24123 6.76874 8.14361 6.87152 8.07493C6.9743 8.00625 7.09513 7.96959 7.21875 7.96959H9.875V3.125C9.875 2.95924 9.94085 2.80027 10.0581 2.68306C10.1753 2.56585 10.3342 2.5 10.5 2.5C10.6658 2.5 10.8247 2.56585 10.9419 2.68306C11.0592 2.80027 11.125 2.95924 11.125 3.125V7.96959H13.7812C13.9049 7.96959 14.0257 8.00625 14.1285 8.07493C14.2313 8.14361 14.3114 8.24123 14.3587 8.35544C14.406 8.46965 14.4183 8.59532 14.3942 8.71656C14.3701 8.83779 14.3106 8.94916 14.2231 9.03656L10.9419 12.317C10.8247 12.4342 10.6657 12.5 10.5 12.5C10.3343 12.5 10.1753 12.4342 10.0581 12.317L6.77686 9.03656ZM17.375 11.25C17.2092 11.25 17.0503 11.3159 16.9331 11.4331C16.8159 11.5503 16.75 11.7092 16.75 11.875V16.25H4.25V11.875C4.25 11.7092 4.18415 11.5503 4.06694 11.4331C3.94973 11.3158 3.79076 11.25 3.625 11.25C3.45924 11.25 3.30027 11.3158 3.18306 11.4331C3.06585 11.5503 3 11.7092 3 11.875V16.25C3.00038 16.5814 3.1322 16.8991 3.36654 17.1335C3.60087 17.3678 3.9186 17.4996 4.25 17.5H16.75C17.0814 17.4996 17.3991 17.3678 17.6335 17.1335C17.8678 16.8991 17.9996 16.5814 18 16.25V11.875C18 11.7092 17.9341 11.5503 17.8169 11.4331C17.6997 11.3159 17.5408 11.25 17.375 11.25Z" fill="#697682"/>
</svg>
