<svg width="65" height="64" viewBox="0 0 65 64" fill="none" xmlns="http://www.w3.org/2000/svg">
<path fill-rule="evenodd" clip-rule="evenodd" d="M40.8276 55.003C40.7296 55.189 40.6296 55.37 40.5256 55.545C40.4814 55.6197 40.4185 55.6816 40.3431 55.7246C40.2677 55.7675 40.1824 55.7901 40.0956 55.79H7.20058C7.11429 55.7899 7.02949 55.7675 6.95442 55.725C6.87934 55.6825 6.81656 55.6212 6.77216 55.5472C6.72777 55.4733 6.70328 55.389 6.70107 55.3028C6.69887 55.2165 6.71902 55.1312 6.75958 55.055L6.77258 55.03C9.90958 48.219 10.1486 36.365 10.1486 36.365V8.70999C10.1486 8.57738 10.2013 8.45021 10.295 8.35644C10.3888 8.26267 10.516 8.20999 10.6486 8.20999H30.6146C30.7472 8.20999 30.8744 8.15731 30.9681 8.06355C31.0619 7.96978 31.1146 7.8426 31.1146 7.70999C31.1146 7.57738 31.0619 7.45021 30.9681 7.35644C30.8744 7.26267 30.7472 7.20999 30.6146 7.20999H10.6486C10.2508 7.20999 9.86922 7.36803 9.58792 7.64933C9.30661 7.93064 9.14858 8.31217 9.14858 8.70999V36.35C9.14358 36.606 8.89958 48.004 5.87158 54.595C5.75269 54.8236 5.69462 55.0789 5.70293 55.3365C5.71124 55.594 5.78567 55.845 5.91904 56.0655C6.05242 56.286 6.24027 56.4684 6.46453 56.5953C6.68879 56.7222 6.94192 56.7892 7.19958 56.79H40.0956C40.3558 56.7901 40.6116 56.7224 40.8377 56.5937C41.0639 56.465 41.2527 56.2797 41.3856 56.056L41.7126 55.469C41.7432 55.4109 41.762 55.3473 41.7681 55.2819C41.7741 55.2165 41.7672 55.1506 41.7477 55.0879C41.7283 55.0251 41.6967 54.9668 41.6547 54.9163C41.6127 54.8658 41.5612 54.8241 41.5031 54.7935C41.445 54.7629 41.3814 54.744 41.316 54.738C41.2506 54.732 41.1847 54.7389 41.1219 54.7583C41.0592 54.7778 41.0009 54.8094 40.9504 54.8514C40.8999 54.8934 40.8582 54.9449 40.8276 55.003Z" fill="#738BAB"/>
<path fill-rule="evenodd" clip-rule="evenodd" d="M44.4647 20.867C44.561 20.9051 44.6668 20.9123 44.7674 20.8877C44.868 20.8631 44.9585 20.8078 45.0264 20.7295C45.0942 20.6512 45.1361 20.5538 45.1462 20.4507C45.1562 20.3476 45.1341 20.2439 45.0827 20.154C42.2617 15.222 38.3967 10.943 33.5007 7.308C33.4192 7.24768 33.3214 7.21355 33.2201 7.21011C33.1188 7.20668 33.0188 7.23411 32.9335 7.28877C32.8481 7.34343 32.7814 7.42273 32.7421 7.51618C32.7029 7.60962 32.693 7.71278 32.7137 7.812C33.4507 11.333 33.8127 14.896 33.4557 18.539C33.4325 18.767 33.4619 18.9974 33.5416 19.2123C33.6213 19.4272 33.7492 19.621 33.9155 19.7788C34.0818 19.9366 34.282 20.0541 34.5008 20.1225C34.7196 20.1908 34.9512 20.2081 35.1777 20.173C38.3847 19.677 41.5127 19.701 44.4647 20.867Z" fill="#2D74FF"/>
<path fill-rule="evenodd" clip-rule="evenodd" d="M14.6484 27.532H27.7544C27.887 27.532 28.0142 27.4793 28.108 27.3856C28.2018 27.2918 28.2544 27.1646 28.2544 27.032C28.2544 26.8994 28.2018 26.7722 28.108 26.6784C28.0142 26.5847 27.887 26.532 27.7544 26.532H14.6484C14.5158 26.532 14.3887 26.5847 14.2949 26.6784C14.2011 26.7722 14.1484 26.8994 14.1484 27.032C14.1484 27.1646 14.2011 27.2918 14.2949 27.3856C14.3887 27.4793 14.5158 27.532 14.6484 27.532ZM14.6484 32.532H23.9614C24.094 32.532 24.2212 32.4793 24.315 32.3856C24.4088 32.2918 24.4614 32.1646 24.4614 32.032C24.4614 31.8994 24.4088 31.7722 24.315 31.6784C24.2212 31.5847 24.094 31.532 23.9614 31.532H14.6484C14.5158 31.532 14.3887 31.5847 14.2949 31.6784C14.2011 31.7722 14.1484 31.8994 14.1484 32.032C14.1484 32.1646 14.2011 32.2918 14.2949 32.3856C14.3887 32.4793 14.5158 32.532 14.6484 32.532ZM14.6484 37.532H23.9614C24.094 37.532 24.2212 37.4793 24.315 37.3856C24.4088 37.2918 24.4614 37.1646 24.4614 37.032C24.4614 36.8994 24.4088 36.7722 24.315 36.6784C24.2212 36.5847 24.094 36.532 23.9614 36.532H14.6484C14.5158 36.532 14.3887 36.5847 14.2949 36.6784C14.2011 36.7722 14.1484 36.8994 14.1484 37.032C14.1484 37.1646 14.2011 37.2918 14.2949 37.3856C14.3887 37.4793 14.5158 37.532 14.6484 37.532ZM14.6484 42.532H23.9614C24.094 42.532 24.2212 42.4793 24.315 42.3856C24.4088 42.2918 24.4614 42.1646 24.4614 42.032C24.4614 41.8994 24.4088 41.7722 24.315 41.6784C24.2212 41.5847 24.094 41.532 23.9614 41.532H14.6484C14.5158 41.532 14.3887 41.5847 14.2949 41.6784C14.2011 41.7722 14.1484 41.8994 14.1484 42.032C14.1484 42.1646 14.2011 42.2918 14.2949 42.3856C14.3887 42.4793 14.5158 42.532 14.6484 42.532ZM55.8674 28.754C57.8668 31.3016 58.9516 34.4475 58.9474 37.686C58.9474 45.689 52.4504 52.186 44.4474 52.186C36.4444 52.186 29.9474 45.689 29.9474 37.686C29.9474 29.683 36.4444 23.186 44.4474 23.186C47.8828 23.1818 51.2072 24.4026 53.8234 26.629C53.925 26.7106 54.0543 26.7493 54.184 26.7369C54.3137 26.7245 54.4334 26.6621 54.5177 26.5628C54.602 26.4635 54.6442 26.3352 54.6354 26.2053C54.6266 26.0754 54.5674 25.954 54.4704 25.867C51.6739 23.4864 48.12 22.1813 44.4474 22.186C35.8924 22.186 28.9474 29.131 28.9474 37.686C28.9474 46.241 35.8924 53.186 44.4474 53.186C53.0014 53.186 59.9474 46.241 59.9474 37.686C59.9474 34.086 58.7164 30.77 56.6544 28.138C56.6149 28.0838 56.5649 28.0381 56.5073 28.0036C56.4497 27.9691 56.3858 27.9465 56.3194 27.9373C56.2529 27.928 56.1853 27.9322 56.1205 27.9497C56.0557 27.9671 55.995 27.9974 55.9422 28.0388C55.8894 28.0801 55.8454 28.1317 55.8129 28.1904C55.7804 28.2491 55.7601 28.3138 55.7531 28.3805C55.7461 28.4473 55.7526 28.5147 55.7723 28.5789C55.7919 28.6431 55.8243 28.7026 55.8674 28.754Z" fill="#738BAB"/>
<path fill-rule="evenodd" clip-rule="evenodd" d="M36.354 35.386C37.64 30.588 42.573 27.706 47.372 28.992C52.17 30.277 55.021 35.216 53.736 40.014C52.45 44.812 47.511 47.664 42.713 46.378C42.4568 46.3093 42.1838 46.3452 41.9541 46.4778C41.7244 46.6104 41.5567 46.8288 41.488 47.085C41.4193 47.3412 41.4552 47.6142 41.5878 47.8439C41.7204 48.0737 41.9388 48.2413 42.195 48.31C48.059 49.881 54.096 46.396 55.667 40.532C57.239 34.668 53.753 28.631 47.889 27.06C42.025 25.489 35.994 29.004 34.423 34.868C34.3623 35.1214 34.4029 35.3884 34.5362 35.6123C34.6694 35.8362 34.8848 35.9993 35.1364 36.0668C35.3881 36.1343 35.6561 36.1009 35.8835 35.9738C36.1109 35.8466 36.2797 35.6357 36.354 35.386Z" fill="#2D74FF"/>
<path fill-rule="evenodd" clip-rule="evenodd" d="M32.9272 31.818L34.4642 35.511C34.5147 35.6323 34.5886 35.7425 34.6816 35.8352C34.7747 35.928 34.8851 36.0015 35.0066 36.0515C35.128 36.1016 35.2582 36.1272 35.3895 36.1269C35.5209 36.1267 35.651 36.1005 35.7722 36.05L39.4652 34.513C39.7061 34.4083 39.8961 34.2132 39.9942 33.9696C40.0924 33.7261 40.0908 33.4537 39.9898 33.2113C39.8888 32.9689 39.6966 32.7759 39.4546 32.6741C39.2125 32.5723 38.9401 32.5697 38.6962 32.667L35.9262 33.82L34.7742 31.05C34.6724 30.8051 34.4774 30.6106 34.2322 30.5095C33.987 30.4083 33.7117 30.4086 33.4667 30.5105C33.2218 30.6123 33.0274 30.8073 32.9262 31.0525C32.825 31.2977 32.8254 31.5731 32.9272 31.818Z" fill="#2D74FF"/>
<path fill-rule="evenodd" clip-rule="evenodd" d="M43.9479 32.686V39.456L40.6219 42.306C40.5288 42.3944 40.4731 42.5153 40.4665 42.6436C40.4599 42.7718 40.5028 42.8978 40.5863 42.9953C40.6699 43.0929 40.7877 43.1546 40.9155 43.1678C41.0433 43.1809 41.1713 43.1445 41.2729 43.066L44.7729 40.066C44.8278 40.0191 44.8719 39.9608 44.9021 39.8952C44.9323 39.8296 44.948 39.7582 44.9479 39.686V32.686C44.9479 32.5534 44.8953 32.4262 44.8015 32.3325C44.7077 32.2387 44.5806 32.186 44.4479 32.186C44.3153 32.186 44.1882 32.2387 44.0944 32.3325C44.0006 32.4262 43.9479 32.5534 43.9479 32.686Z" fill="#738BAB"/>
</svg>
