<svg width="20" height="20" viewBox="0 0 20 20" fill="none" xmlns="http://www.w3.org/2000/svg">
<path opacity="0.2" d="M3.125 14.375V10.625H5C5.16576 10.625 5.32473 10.6908 5.44194 10.8081C5.55915 10.9253 5.625 11.0842 5.625 11.25V14.375C5.625 14.5408 5.55915 14.6997 5.44194 14.8169C5.32473 14.9342 5.16576 15 5 15H3.75C3.58424 15 3.42527 14.9342 3.30806 14.8169C3.19085 14.6997 3.125 14.5408 3.125 14.375Z" fill="#0080F9" stroke="#0080F9" stroke-width="1.25"/>
<path opacity="0.2" d="M15.1138 10.625H16.9888V14.375C16.9888 14.5408 16.9229 14.6997 16.8057 14.8169C16.6885 14.9342 16.5295 15 16.3638 15H15.1138C14.948 15 14.789 14.9342 14.6718 14.8169C14.5546 14.6997 14.4888 14.5408 14.4888 14.375V11.25C14.4888 11.0842 14.5546 10.9253 14.6718 10.8081C14.789 10.6908 14.948 10.625 15.1138 10.625Z" fill="#191B1C" stroke="#0080F9" stroke-width="1.25"/>
<path d="M17.6137 10H15.1137C14.7822 10 14.4643 10.1317 14.2299 10.3661C13.9954 10.6005 13.8637 10.9185 13.8637 11.25V14.375C13.8637 14.7065 13.9954 15.0245 14.2299 15.2589C14.4643 15.4933 14.7822 15.625 15.1137 15.625H16.3637C16.6953 15.625 17.0132 15.4933 17.2476 15.2589C17.482 15.0245 17.6137 14.7065 17.6137 14.375V10ZM17.6137 10C17.6137 9.01031 17.4179 8.03039 17.0374 7.11675C16.6569 6.20311 16.0994 5.3738 15.3969 4.67664C14.6944 3.97947 13.8609 3.42823 12.9444 3.0547C12.0279 2.68116 11.0465 2.49271 10.0569 2.50022C9.0672 2.49271 8.08583 2.68116 7.16932 3.0547C6.25282 3.42823 5.41931 3.97947 4.71684 4.67664C4.01437 5.3738 3.45683 6.20311 3.07636 7.11675C2.69588 8.03039 2.5 9.01031 2.5 10V14.375C2.5 14.7065 2.6317 15.0245 2.86612 15.2589C3.10054 15.4933 3.41848 15.625 3.75 15.625H5C5.33152 15.625 5.64946 15.4933 5.88388 15.2589C6.1183 15.0245 6.25 14.7065 6.25 14.375V11.25C6.25 10.9185 6.1183 10.6005 5.88388 10.3661C5.64946 10.1317 5.33152 10 5 10H2.5" stroke="#0080F9" stroke-width="1.25" stroke-linecap="round" stroke-linejoin="round"/>
<path d="M17.6137 14.375V16.25C17.6137 16.913 17.3503 17.5489 16.8815 18.0178C16.4127 18.4866 15.7768 18.75 15.1137 18.75H10.625" stroke="#0080F9" stroke-width="1.25" stroke-linecap="round" stroke-linejoin="round"/>
</svg>
