<svg width="111" height="108" viewBox="0 0 111 108" fill="none" xmlns="http://www.w3.org/2000/svg">
<rect x="0.75" y="1.25" width="105.5" height="105.5" rx="52.75" fill="#E6F2FE"/>
<rect x="0.75" y="1.25" width="105.5" height="105.5" rx="52.75" stroke="#99CCFD" stroke-width="1.5" stroke-dasharray="2 2"/>
<path d="M66.4379 64.5297L66.4378 64.5298L66.4388 64.5313C66.5207 64.6734 66.5638 64.8345 66.5639 64.9985C66.564 65.1631 66.5208 65.3249 66.4385 65.4675C66.3563 65.6102 66.2379 65.7286 66.0954 65.8109C65.9528 65.8933 65.791 65.9367 65.6264 65.9366L41.3735 65.9364C41.2089 65.9364 41.0472 65.893 40.9046 65.8107C40.762 65.7283 40.6437 65.6099 40.5614 65.4673C40.4792 65.3246 40.4359 65.1629 40.436 64.9982C40.4362 64.8336 40.4796 64.672 40.562 64.5295C42.4202 61.3292 45.396 58.9288 48.9171 57.79L49.0485 57.7475L48.9298 57.6768C47.2476 56.6759 45.9406 55.1505 45.2094 53.3348C44.4782 51.5191 44.3633 49.5135 44.8823 47.6262C45.4013 45.7389 46.5256 44.0741 48.0824 42.8877C49.6392 41.7012 51.5425 41.0586 53.4999 41.0586C55.4573 41.0586 57.3605 41.7012 58.9174 42.8877C60.4742 44.0741 61.5984 45.7389 62.1175 47.6262C62.6365 49.5135 62.5216 51.5191 61.7904 53.3348C61.0592 55.1505 59.7521 56.6759 58.07 57.6768L57.9512 57.7475L58.0827 57.79C61.6039 58.9288 64.5797 61.3293 66.4379 64.5297Z" fill="#66B3FB" stroke="#66B3FB" stroke-width="0.125"/>
<rect x="78.5" y="68" width="32" height="32" rx="16" fill="white"/>
<path d="M94.5 70.9998C91.9288 70.9998 89.4154 71.7622 87.2776 73.1907C85.1398 74.6191 83.4735 76.6494 82.4896 79.0249C81.5056 81.4003 81.2482 84.0142 81.7498 86.5359C82.2514 89.0577 83.4895 91.3741 85.3076 93.1921C87.1257 95.0102 89.4421 96.2484 91.9638 96.75C94.4856 97.2516 97.0995 96.9941 99.4749 96.0102C101.85 95.0263 103.881 93.36 105.309 91.2222C106.738 89.0843 107.5 86.5709 107.5 83.9998C107.496 80.5532 106.125 77.2489 103.688 74.8118C101.251 72.3747 97.9466 71.0037 94.5 70.9998ZM99.5 84.9998H95.5V88.9998C95.5 89.265 95.3946 89.5193 95.2071 89.7069C95.0196 89.8944 94.7652 89.9998 94.5 89.9998C94.2348 89.9998 93.9804 89.8944 93.7929 89.7069C93.6054 89.5193 93.5 89.265 93.5 88.9998V84.9998H89.5C89.2348 84.9998 88.9804 84.8944 88.7929 84.7069C88.6054 84.5193 88.5 84.265 88.5 83.9998C88.5 83.7345 88.6054 83.4802 88.7929 83.2926C88.9804 83.1051 89.2348 82.9998 89.5 82.9998H93.5V78.9998C93.5 78.7345 93.6054 78.4802 93.7929 78.2926C93.9804 78.1051 94.2348 77.9998 94.5 77.9998C94.7652 77.9998 95.0196 78.1051 95.2071 78.2926C95.3946 78.4802 95.5 78.7345 95.5 78.9998V82.9998H99.5C99.7652 82.9998 100.02 83.1051 100.207 83.2926C100.395 83.4802 100.5 83.7345 100.5 83.9998C100.5 84.265 100.395 84.5193 100.207 84.7069C100.02 84.8944 99.7652 84.9998 99.5 84.9998Z" fill="#0080F9"/>
</svg>
