<svg width="20" height="20" viewBox="0 0 20 20" fill="none" xmlns="http://www.w3.org/2000/svg">
<path d="M5.18474 3.30995C6.46186 2.03283 8.19339 1.31439 9.99951 1.31223C11.8056 1.31439 13.5372 2.03283 14.8143 3.30995C16.0914 4.58709 16.8099 6.31865 16.812 8.1248C16.812 11.0443 15.2605 13.6115 13.6687 15.4763C12.0779 17.3399 10.4538 18.4938 10.3226 18.5856C10.2279 18.6517 10.1151 18.6872 9.99951 18.6872C9.88394 18.6872 9.77116 18.6517 9.67641 18.5856C9.54523 18.4938 7.9211 17.3399 6.33031 15.4763C4.73848 13.6115 3.18702 11.0442 3.18701 8.12476C3.18916 6.31863 3.9076 4.58708 5.18474 3.30995ZM11.4236 5.99431C11.0022 5.71274 10.5068 5.56245 9.99997 5.56245C9.66346 5.56244 9.33023 5.62872 9.01933 5.75749C8.70843 5.88627 8.42594 6.07502 8.18799 6.31297C7.95004 6.55092 7.76128 6.83341 7.63251 7.14432C7.50373 7.45522 7.43746 7.78844 7.43747 8.12495C7.43747 8.63177 7.58776 9.1272 7.86933 9.5486C8.1509 9.97 8.55111 10.2984 9.01934 10.4924C9.48758 10.6863 10.0028 10.7371 10.4999 10.6382C10.997 10.5393 11.4536 10.2953 11.8119 9.93691C12.1703 9.57854 12.4144 9.12195 12.5132 8.62487C12.6121 8.12779 12.5614 7.61256 12.3674 7.14433C12.1735 6.67609 11.845 6.27588 11.4236 5.99431Z" fill="#0080F9" stroke="#0080F9" stroke-width="0.125"/>
</svg>
