<svg width="20" height="20" viewBox="0 0 20 20" fill="none" xmlns="http://www.w3.org/2000/svg">
<path opacity="0.2" d="M10.5718 16.8773C10.3469 17.0684 10.1523 17.2249 10 17.3437C9.84765 17.2249 9.65306 17.0684 9.42822 16.8773C8.85969 16.3941 8.10236 15.6934 7.34663 14.8243C5.8199 13.0685 4.375 10.7125 4.375 8.125C4.375 6.63316 4.96764 5.20242 6.02253 4.14753C7.07742 3.09264 8.50816 2.5 10 2.5C11.4918 2.5 12.9226 3.09264 13.9775 4.14753C15.0324 5.20242 15.625 6.63316 15.625 8.125C15.625 10.7125 14.1801 13.0685 12.6534 14.8243C11.8976 15.6934 11.1403 16.3941 10.5718 16.8773ZM8.26384 10.7233C8.77775 11.0667 9.38193 11.25 10 11.25C10.8288 11.25 11.6237 10.9207 12.2097 10.3347C12.7957 9.74865 13.125 8.9538 13.125 8.12501C13.125 7.50693 12.9417 6.90275 12.5983 6.38884C12.255 5.87494 11.7669 5.4744 11.1959 5.23788C10.6249 5.00135 9.99653 4.93947 9.39034 5.06005C8.78415 5.18062 8.22733 5.47825 7.79029 5.91529C7.35325 6.35233 7.05562 6.90915 6.93505 7.51534C6.81447 8.12153 6.87635 8.74987 7.11288 9.32089C7.3494 9.89191 7.74994 10.38 8.26384 10.7233Z" fill="#5B6671" stroke="#5B6671" stroke-width="1.25"/>
<path d="M4.375 18.125H15.625" stroke="#5B6671" stroke-width="1.25" stroke-linecap="round" stroke-linejoin="round"/>
<path d="M10 10.625C11.3807 10.625 12.5 9.50571 12.5 8.125C12.5 6.74429 11.3807 5.625 10 5.625C8.61929 5.625 7.5 6.74429 7.5 8.125C7.5 9.50571 8.61929 10.625 10 10.625Z" stroke="#5B6671" stroke-width="1.25" stroke-linecap="round" stroke-linejoin="round"/>
<path d="M16.25 8.125C16.25 13.75 10 18.125 10 18.125C10 18.125 3.75 13.75 3.75 8.125C3.75 6.4674 4.40848 4.87769 5.58058 3.70558C6.75269 2.53348 8.3424 1.875 10 1.875C11.6576 1.875 13.2473 2.53348 14.4194 3.70558C15.5915 4.87769 16.25 6.4674 16.25 8.125V8.125Z" stroke="#5B6671" stroke-width="1.25" stroke-linecap="round" stroke-linejoin="round"/>
</svg>
