<svg width="20" height="20" viewBox="0 0 20 20" fill="none" xmlns="http://www.w3.org/2000/svg">
<path opacity="0.2" d="M16.875 4.6875C16.875 5.55045 16.1754 6.25 15.3125 6.25C14.4496 6.25 13.75 5.55045 13.75 4.6875C13.75 3.82456 14.4496 3.125 15.3125 3.125C16.1754 3.125 16.875 3.82456 16.875 4.6875Z" fill="#5B6671" stroke="#5B6671" stroke-width="1.25"/>
<path d="M16.25 10V16.25C16.25 16.4158 16.1842 16.5747 16.0669 16.6919C15.9497 16.8092 15.7908 16.875 15.625 16.875H3.75C3.58424 16.875 3.42527 16.8092 3.30806 16.6919C3.19085 16.5747 3.125 16.4158 3.125 16.25V4.375C3.125 4.20924 3.19085 4.05027 3.30806 3.93306C3.42527 3.81585 3.58424 3.75 3.75 3.75H10" stroke="#5B6671" stroke-width="1.25" stroke-linecap="round" stroke-linejoin="round"/>
<path d="M15.3125 6.875C16.5206 6.875 17.5 5.89562 17.5 4.6875C17.5 3.47938 16.5206 2.5 15.3125 2.5C14.1044 2.5 13.125 3.47938 13.125 4.6875C13.125 5.89562 14.1044 6.875 15.3125 6.875Z" stroke="#5B6671" stroke-width="1.25" stroke-linecap="round" stroke-linejoin="round"/>
</svg>
