<svg width="16" height="16" viewBox="0 0 16 16" fill="none" xmlns="http://www.w3.org/2000/svg">
<path d="M13.8732 9.90167L10.9459 8.64709C10.793 8.5813 10.6261 8.5548 10.4604 8.57003C10.2947 8.58525 10.1355 8.64171 9.99719 8.73425L8.432 9.77759C7.47541 9.31233 6.70117 8.5415 6.23169 7.58698L6.23181 7.58685L7.27148 5.99823C7.36198 5.86031 7.41689 5.70212 7.43129 5.53779C7.44569 5.37346 7.41913 5.20813 7.354 5.05658L6.09827 2.12671C6.01279 1.92783 5.86519 1.76199 5.67757 1.65402C5.48994 1.54605 5.2724 1.50175 5.0575 1.52777C4.21304 1.63635 3.43699 2.04864 2.87432 2.68763C2.31166 3.32662 2.00086 4.14859 2 5C2 9.96265 6.03735 14 11 14C11.8514 13.9991 12.6734 13.6883 13.3124 13.1257C13.9514 12.563 14.3637 11.7869 14.4722 10.9424C14.4982 10.7275 14.4538 10.51 14.3459 10.3224C14.2379 10.1348 14.0721 9.98719 13.8732 9.90167Z" fill="#697682"/>
<path d="M9.83472 2.98304C10.5975 3.18814 11.293 3.59011 11.8516 4.14865C12.4101 4.7072 12.8121 5.40272 13.0172 6.16553C13.0517 6.29339 13.1354 6.40236 13.2502 6.46852C13.3649 6.53468 13.5011 6.55264 13.6291 6.51845C13.757 6.48426 13.8661 6.40072 13.9325 6.28615C13.999 6.17159 14.0172 6.03536 13.9833 5.90735C13.7325 4.97487 13.2412 4.12465 12.5584 3.44187C11.8756 2.75908 11.0254 2.26771 10.0929 2.01697C9.96489 1.98305 9.82866 2.0013 9.7141 2.06771C9.59953 2.13411 9.51599 2.24326 9.4818 2.37119C9.44761 2.49912 9.46557 2.63539 9.53173 2.75009C9.59789 2.8648 9.70686 2.94857 9.83472 2.98303L9.83472 2.98304Z" fill="#697682"/>
<path d="M9.31714 4.91533C9.74089 5.02928 10.1273 5.25259 10.4375 5.56287C10.7478 5.87315 10.9711 6.25952 11.0851 6.68328C11.1195 6.81113 11.2033 6.9201 11.318 6.98626C11.4327 7.05243 11.569 7.07039 11.6969 7.0362C11.8249 7.00201 11.934 6.91846 12.0004 6.8039C12.0668 6.68933 12.0851 6.5531 12.0511 6.4251C11.8916 5.83167 11.5789 5.29058 11.1444 4.85606C10.7098 4.42154 10.1688 4.10883 9.57532 3.94927C9.44732 3.91535 9.31108 3.9336 9.19652 4C9.08195 4.06641 8.99841 4.17555 8.96422 4.30348C8.93003 4.43141 8.94799 4.56768 9.01415 4.68239C9.08031 4.7971 9.18928 4.88087 9.31714 4.91533L9.31714 4.91533Z" fill="#697682"/>
</svg>
