<svg width="27" height="26" viewBox="0 0 27 26" fill="none" xmlns="http://www.w3.org/2000/svg">
<path d="M13.5 -0.000244141C10.9288 -0.000244141 8.41543 0.762193 6.27759 2.19065C4.13975 3.61911 2.47351 5.64943 1.48957 8.02487C0.505633 10.4003 0.248189 13.0142 0.749797 15.5359C1.25141 18.0577 2.48953 20.3741 4.30762 22.1921C6.1257 24.0102 8.44208 25.2484 10.9638 25.75C13.4856 26.2516 16.0995 25.9941 18.4749 25.0102C20.8503 24.0263 22.8807 22.36 24.3091 20.2222C25.7376 18.0843 26.5 15.5709 26.5 12.9998C26.496 9.55316 25.1251 6.24888 22.688 3.81177C20.2509 1.37466 16.9466 0.00373937 13.5 -0.000244141ZM18.5 13.9998H14.5V17.9998C14.5 18.265 14.3946 18.5193 14.2071 18.7069C14.0196 18.8944 13.7652 18.9998 13.5 18.9998C13.2348 18.9998 12.9804 18.8944 12.7929 18.7069C12.6054 18.5193 12.5 18.265 12.5 17.9998V13.9998H8.50001C8.23479 13.9998 7.98044 13.8944 7.7929 13.7069C7.60536 13.5193 7.50001 13.265 7.50001 12.9998C7.50001 12.7345 7.60536 12.4802 7.7929 12.2926C7.98044 12.1051 8.23479 11.9998 8.50001 11.9998H12.5V7.99975C12.5 7.73454 12.6054 7.48018 12.7929 7.29265C12.9804 7.10511 13.2348 6.99975 13.5 6.99975C13.7652 6.99975 14.0196 7.10511 14.2071 7.29265C14.3946 7.48018 14.5 7.73454 14.5 7.99975V11.9998H18.5C18.7652 11.9998 19.0196 12.1051 19.2071 12.2926C19.3946 12.4802 19.5 12.7345 19.5 12.9998C19.5 13.265 19.3946 13.5193 19.2071 13.7069C19.0196 13.8944 18.7652 13.9998 18.5 13.9998Z" fill="#0080F9"/>
</svg>
