<svg width="71" height="66" viewBox="0 0 71 66" fill="none" xmlns="http://www.w3.org/2000/svg">
<path d="M58.1432 44.3432L37.2932 32.2261C37.0671 32.0945 36.8567 31.9377 36.666 31.7587L57.516 43.8758C57.7098 44.0563 57.9199 44.2131 58.1432 44.3432Z" fill="#FFD69A"/>
<path d="M47.3886 14.8255L68.2401 26.9426C66.9458 26.1912 65.1576 26.2963 63.1873 27.4337C62.769 27.6791 62.3678 27.9523 61.9863 28.2517L41.1348 16.1345C41.5163 15.8352 41.9175 15.5619 42.3358 15.3166C44.3061 14.1791 46.0943 14.0741 47.3886 14.8255Z" fill="#56707B"/>
<path d="M56.5117 27.5995L35.6602 15.4823C38.1777 16.9452 40.0162 16.6493 41.1345 16.1331L61.986 28.2518C60.8677 28.7665 59.0277 29.0623 56.5117 27.5995Z" fill="#56707B"/>
<path d="M24.1493 65.3073L3.3141 53.199C3.19071 53.1252 3.09428 53.0137 3.03898 52.881C2.59524 51.8884 2.13079 50.2614 2.08789 50.1564L22.9438 62.2854C22.966 62.3697 23.4527 64.0189 23.8964 65.0114C23.96 65.1386 24.0443 65.2437 24.1493 65.3073Z" fill="#40545D"/>
<path d="M70.1532 33.3976C69.603 36.9061 67.3206 40.7741 64.5325 42.9499C64.0887 43.2886 63.645 43.6052 63.2219 43.8374C62.08 44.4927 61.0239 44.8092 60.0728 44.8299C59.0581 44.8299 58.1928 44.5134 57.5169 43.8788C52.8457 44.3862 48.6198 46.0132 44.9855 48.1062C36.8281 52.8395 31.5253 59.8773 30.2976 61.6508C30.1181 61.9044 29.8971 62.1259 29.6439 62.306L25.1428 65.18C24.5719 65.5187 24.0852 65.4344 23.8959 65.0114C23.4522 64.0189 22.9655 62.3696 22.9448 62.2853C21.9094 62.877 21.5929 62.2853 21.5707 62.2646C19.7543 59.5163 21.8872 55.0789 21.9937 54.8245C40.8647 36.949 55.276 27.7976 56.0377 27.3124C58.8052 29.1081 60.7917 28.7915 61.975 28.2413C62.3759 27.9455 62.7782 27.6718 63.179 27.4396C67.6165 24.8807 71.125 27.5224 70.1532 33.3976Z" fill="#485F69"/>
<path d="M21.7825 62.4555L0.926558 50.3457C0.799352 50.2614 0.734269 50.1564 0.734269 50.1564C-1.08212 47.3875 1.0301 42.95 1.1366 42.7163L21.994 54.8261C21.8875 55.0775 19.7546 59.5164 21.571 62.2647C21.5932 62.2854 21.6346 62.3919 21.7825 62.4555Z" fill="#56707B"/>
<path d="M21.9926 54.8365L1.13965 42.7193C20.0091 24.8364 34.4263 15.6717 35.1851 15.1895L56.0352 27.3066C55.2764 27.7903 40.8606 36.9536 21.9926 54.8365Z" fill="#778C95"/>
<path d="M51.2195 28.009C50.2477 28.685 49.128 29.4882 47.8381 30.4392C44.3585 32.9498 40.9549 35.5641 37.632 38.2787L25.9675 32.0456L20.8955 29.3402C21.4872 28.8758 22.0581 28.4113 22.6291 27.9883C23.9381 26.9307 25.1643 25.9811 26.3047 25.1143C27.1079 24.5227 27.8697 23.9532 28.5664 23.4237C31.6519 21.1413 33.9549 19.5779 35.2447 18.7318L41.6464 22.4519L43.9924 23.8038L47.9446 26.1068L51.2195 28.009Z" fill="#4BB5E7"/>
<path d="M19.7757 57.4026V59.2205L1.41211 48.6135V46.7942L1.96087 47.1122L19.7757 57.4026Z" fill="#485F69"/>
<path d="M19.7748 57.4026V58.4824L1.95996 48.189V47.1107L19.7748 57.4026Z" fill="#35484F"/>
<path d="M24.2201 33.1135L24.3547 34.0883L21.5399 36.2626L21.4053 35.2893L24.2201 33.1135Z" fill="#40545D"/>
<path d="M21.4039 35.2895L21.54 36.2627L16.0257 33.4065L15.8896 32.4332L21.4039 35.2895Z" fill="#485F69"/>
<path d="M24.2202 33.1137L21.4054 35.2895L15.8896 32.4333L18.7059 30.2574L24.2202 33.1137Z" fill="#56707B"/>
<path d="M30.5008 36.3693L30.6369 37.3425L27.8221 39.5169L27.6875 38.5451L30.5008 36.3693Z" fill="#40545D"/>
<path d="M27.6866 38.545L27.8212 39.5182L22.307 36.6605L22.1709 35.6873L27.6866 38.545Z" fill="#485F69"/>
<path d="M30.5 36.3692L27.6866 38.5435L22.1709 35.6873L24.9872 33.5129L30.5 36.3692Z" fill="#56707B"/>
<path d="M36.7836 39.6233L36.9196 40.5966L34.1034 42.7724L33.9688 41.7991L36.7836 39.6233Z" fill="#40545D"/>
<path d="M33.9693 41.7992L34.1039 42.7725L28.5897 39.9163L28.4551 38.943L33.9693 41.7992Z" fill="#485F69"/>
<path d="M36.7841 39.6234L33.9693 41.7993L28.4551 38.943L31.2699 36.7672L36.7841 39.6234Z" fill="#56707B"/>
<path d="M20.2533 36.1798L20.3894 37.1531L17.5731 39.3274L17.4385 38.3556L20.2533 36.1798Z" fill="#40545D"/>
<path d="M17.4381 38.3558L17.5727 39.329L12.0584 36.4713L11.9238 35.498L17.4381 38.3558Z" fill="#485F69"/>
<path d="M20.2529 36.1799L17.4381 38.3542L11.9238 35.498L14.7386 33.3221L20.2529 36.1799Z" fill="#56707B"/>
<path d="M26.537 39.4341L26.6716 40.4074L23.8568 42.5832L23.7207 41.6099L26.537 39.4341Z" fill="#40545D"/>
<path d="M23.7203 41.6098L23.8564 42.5831L18.3407 39.7268L18.2061 38.7521L23.7203 41.6098Z" fill="#485F69"/>
<path d="M26.5366 39.434L23.7203 41.6098L18.2061 38.7521L21.0209 36.5778L26.5366 39.434Z" fill="#56707B"/>
<path d="M32.8182 42.6896L32.9528 43.6629L30.138 45.8372L30.002 44.8654L32.8182 42.6896Z" fill="#40545D"/>
<path d="M30.0016 44.8655L30.1376 45.8388L24.6219 42.9811L24.4873 42.0078L30.0016 44.8655Z" fill="#485F69"/>
<path d="M32.8179 42.6895L30.0016 44.8638L24.4873 42.0076L27.3021 39.8318L32.8179 42.6895Z" fill="#56707B"/>
<path d="M16.2802 39.2506L16.4148 40.2239L13.5999 42.3997L13.4639 41.4264L16.2802 39.2506Z" fill="#40545D"/>
<path d="M13.4635 41.4263L13.5996 42.3996L8.0853 39.5419L7.94922 38.5686L13.4635 41.4263Z" fill="#485F69"/>
<path d="M16.2798 39.2507L13.4635 41.425L7.94922 38.5702L10.764 36.3929L16.2798 39.2507Z" fill="#56707B"/>
<path d="M22.5624 42.5046L22.697 43.4794L19.8822 45.6537L19.7461 44.6805L22.5624 42.5046Z" fill="#40545D"/>
<path d="M19.7472 44.6806L19.8818 45.6538L14.3675 42.7976L14.2314 41.8243L19.7472 44.6806Z" fill="#485F69"/>
<path d="M22.562 42.5048L19.7457 44.6806L14.2314 41.8244L17.0463 39.6486L22.562 42.5048Z" fill="#56707B"/>
<path d="M28.8441 45.7604L28.9787 46.7337L26.1639 48.9095L26.0293 47.9362L28.8441 45.7604Z" fill="#40545D"/>
<path d="M26.0294 47.9361L26.164 48.9094L20.6498 46.0516L20.5137 45.0784L26.0294 47.9361Z" fill="#485F69"/>
<path d="M28.8442 45.7603L26.0294 47.9346L20.5137 45.0799L23.33 42.9026L28.8442 45.7603Z" fill="#56707B"/>
<path d="M12.3129 42.3154L12.4489 43.2887L9.63265 45.4645L9.49805 44.4913L12.3129 42.3154Z" fill="#CB4844"/>
<path d="M9.49668 44.4911L9.63276 45.4644L4.1185 42.6082L3.98242 41.6349L9.49668 44.4911Z" fill="#EE5550"/>
<path d="M12.313 42.3153L9.49815 44.4912L3.98242 41.6349L6.79871 39.4591L12.313 42.3153Z" fill="#F17572"/>
<path d="M18.5951 45.5709L18.7312 46.5442L15.9149 48.7185L15.7803 47.7467L18.5951 45.5709Z" fill="#269DD6"/>
<path d="M15.7804 47.7469L15.915 48.7201L10.4007 45.8624L10.2646 44.8892L15.7804 47.7469Z" fill="#4BB5E7"/>
<path d="M18.5952 45.571L15.7804 47.7453L10.2646 44.8906L13.0809 42.7133L18.5952 45.571Z" fill="#78CFE2"/>
<path d="M24.8773 48.8252L25.0134 49.7985L22.1971 51.9743L22.0625 51.001L24.8773 48.8252Z" fill="#D8B441"/>
<path d="M22.0621 51.0009L22.1967 51.9742L16.6825 49.1179L16.5479 48.1447L22.0621 51.0009Z" fill="#FED44C"/>
<path d="M24.8769 48.8251L22.0621 51.0009L16.5479 48.1447L19.3627 45.9689L24.8769 48.8251Z" fill="#FEE182"/>
<path d="M62.8392 27.1926L63.067 27.0802C64.8346 26.0596 66.6021 26.0093 67.9482 26.7726L47.5434 14.9143C46.1973 14.1362 44.4298 14.2013 42.6622 15.2234L42.4344 15.3358L42.3516 15.392L62.7667 27.2459L62.8407 27.1941L62.8392 27.1926Z" fill="#485F69"/>
<path d="M62.4012 25.669C62.1098 25.8791 61.4279 26.3997 61.4279 26.3997L44.0879 16.3268C44.396 16.0693 44.7153 15.8255 45.0449 15.5961L62.4012 25.669Z" fill="#40545D"/>
<path d="M61.7549 25.8555L44.9962 16.0117C44.9784 10.1395 49.123 2.95385 54.2393 0L70.998 9.84371C65.8832 12.7976 61.7401 19.9832 61.7549 25.8555Z" fill="#DDE4E7"/>
<path d="M70.9996 9.84375V9.98427C65.9542 12.8982 61.86 19.9877 61.8762 25.786L61.7549 25.8555C61.7387 19.9833 65.8832 12.7976 70.9996 9.84375Z" fill="#CFD8DD"/>
<path d="M20.0967 28.9127L20.8925 29.3372C27.8785 23.749 33.0318 20.1991 35.2446 18.7347V17.6757C32.946 19.1992 27.4983 22.9429 20.0967 28.9127Z" fill="#485F69"/>
<path d="M35.2441 17.6757V18.7347L51.2115 28.0149L52.0428 27.438L35.2441 17.6757Z" fill="#56707B"/>
<path d="M43.9924 23.8053L26.3047 25.1144C27.1079 24.5227 27.8697 23.9532 28.5664 23.4237L41.6464 22.4519L43.9924 23.8053ZM51.2195 28.0091C50.2477 28.685 49.128 29.4882 47.8381 30.4393L25.9675 32.0456L20.8955 29.3403C21.4872 28.8758 22.0581 28.4114 22.6291 27.9883L47.9446 26.1069L51.2195 28.0091Z" fill="#61C4F0"/>
<path d="M57.5164 43.8788C52.8453 44.3861 48.6193 46.0132 44.9851 48.1062C36.8276 52.8395 31.5249 59.8772 30.2972 61.6507C30.1177 61.9044 29.8966 62.1259 29.6434 62.306L25.1423 65.18C24.5714 65.5187 24.0848 65.4344 23.8954 65.0113C23.4517 64.0188 22.965 62.3696 22.9443 62.2853C22.9443 62.2853 38.286 38.5332 57.5164 43.8788Z" fill="#778C95"/>
</svg>
