<svg width="413" height="34" viewBox="0 0 413 34" fill="none" xmlns="http://www.w3.org/2000/svg">
<rect width="413" height="34" fill="url(#paint0_linear_749_10527)"/>
<rect x="-11" y="8" width="18" height="18" rx="9" fill="white"/>
<rect x="15" y="16" width="9" height="2" rx="1" fill="#CCE6FE"/>
<rect x="32" y="16" width="9" height="2" rx="1" fill="#CCE6FE"/>
<rect x="49" y="16" width="9" height="2" rx="1" fill="#CCE6FE"/>
<rect x="66" y="16" width="9" height="2" rx="1" fill="#CCE6FE"/>
<rect x="83" y="16" width="9" height="2" rx="1" fill="#CCE6FE"/>
<rect x="100" y="16" width="9" height="2" rx="1" fill="#CCE6FE"/>
<rect x="117" y="16" width="9" height="2" rx="1" fill="#CCE6FE"/>
<rect x="134" y="16" width="9" height="2" rx="1" fill="#CCE6FE"/>
<rect x="151" y="16" width="9" height="2" rx="1" fill="#CCE6FE"/>
<rect x="168" y="16" width="9" height="2" rx="1" fill="#CCE6FE"/>
<rect x="185" y="16" width="9" height="2" rx="1" fill="#CCE6FE"/>
<rect x="202" y="16" width="9" height="2" rx="1" fill="#CCE6FE"/>
<rect x="219" y="16" width="9" height="2" rx="1" fill="#CCE6FE"/>
<rect x="236" y="16" width="9" height="2" rx="1" fill="#CCE6FE"/>
<rect x="253" y="16" width="9" height="2" rx="1" fill="#CCE6FE"/>
<rect x="270" y="16" width="9" height="2" rx="1" fill="#CCE6FE"/>
<rect x="287" y="16" width="9" height="2" rx="1" fill="#CCE6FE"/>
<rect x="304" y="16" width="9" height="2" rx="1" fill="#CCE6FE"/>
<rect x="321" y="16" width="9" height="2" rx="1" fill="#CCE6FE"/>
<rect x="338" y="16" width="9" height="2" rx="1" fill="#CCE6FE"/>
<rect x="355" y="16" width="9" height="2" rx="1" fill="#CCE6FE"/>
<rect x="372" y="16" width="9" height="2" rx="1" fill="#CCE6FE"/>
<rect x="389" y="16" width="9" height="2" rx="1" fill="#CCE6FE"/>
<rect x="406" y="8" width="18" height="18" rx="9" fill="white"/>
<defs>
<linearGradient id="paint0_linear_749_10527" x1="0" y1="0" x2="270.468" y2="211.855" gradientUnits="userSpaceOnUse">
<stop stop-color="#0080F9"/>
<stop offset="1" stop-color="#66B3FB"/>
</linearGradient>
</defs>
</svg>
