<svg width="20" height="20" viewBox="0 0 20 20" fill="none" xmlns="http://www.w3.org/2000/svg">
<path d="M17.7368 8.10127C18.0048 8.04614 18.2456 7.9004 18.4187 7.68857C18.5919 7.47672 18.6868 7.2117 18.6875 6.93809V5.00007C18.6871 4.68522 18.5619 4.38336 18.3393 4.16073C18.1166 3.9381 17.8148 3.81287 17.5 3.8125L2.50007 3.8125C2.18522 3.81286 1.88336 3.93809 1.66073 4.16073C1.4381 4.38336 1.31287 4.6852 1.3125 5.00004V6.93817C1.31322 7.21175 1.40813 7.47674 1.58127 7.68857C1.75441 7.9004 1.99523 8.04614 2.26321 8.10127C2.70065 8.19086 3.09374 8.42874 3.37603 8.7747C3.65832 9.12066 3.81249 9.55348 3.81249 10C3.81249 10.4465 3.65832 10.8793 3.37603 11.2253C3.09375 11.5712 2.70068 11.8091 2.26326 11.8987C1.99526 11.9538 1.75443 12.0996 1.58127 12.3114C1.40813 12.5233 1.31322 12.7883 1.3125 13.0618L1.3125 14.9999C1.31286 15.3148 1.43809 15.6166 1.66073 15.8393C1.88336 16.0619 2.18522 16.1871 2.50007 16.1875H17.4999C17.8148 16.1871 18.1166 16.0619 18.3393 15.8393C18.5619 15.6166 18.6871 15.3148 18.6875 14.9999V13.0619C18.6868 12.7883 18.5919 12.5233 18.4187 12.3114C18.2456 12.0996 18.0047 11.9538 17.7367 11.8987C17.2993 11.8091 16.9063 11.5712 16.624 11.2253C16.3417 10.8793 16.1875 10.4465 16.1875 10C16.1875 9.55348 16.3417 9.12066 16.624 8.7747C16.9063 8.42874 17.2994 8.19086 17.7368 8.10127ZM17.7368 8.10127L17.7493 8.1625M17.7368 8.10127L17.7493 8.1625M17.7368 8.10127C17.7368 8.10127 17.7368 8.10128 17.7367 8.10128L17.7493 8.1625M17.7368 8.10127L17.7493 8.1625M2.4875 13.0011L2.4375 13.0113V13.0624V15V15.0625H2.5H6.875H6.9375V15V5V4.9375H6.875H2.5H2.4375V5V6.93825V6.98928L2.4875 6.99948C3.17914 7.14071 3.80077 7.51652 4.24721 8.06333C4.69365 8.61015 4.9375 9.29439 4.9375 10.0003C4.9375 10.7062 4.69365 11.3905 4.24721 11.9373C3.80077 12.4841 3.17914 12.8599 2.4875 13.0011Z" fill="#0080F9" stroke="#0080F9" stroke-width="0.125"/>
</svg>
