<svg width="24" height="18" viewBox="0 0 24 18" fill="none" xmlns="http://www.w3.org/2000/svg">
<path d="M7.65705 5.37895C7.09956 6.50432 6.81003 7.74366 6.81141 8.99993V9C6.81141 9.21549 6.7258 9.42215 6.57343 9.57452C6.42106 9.7269 6.2144 9.8125 5.99891 9.8125C5.78342 9.8125 5.57676 9.7269 5.42438 9.57452C5.27202 9.42216 5.18642 9.21553 5.18641 9.00006C5.18641 9.00004 5.18641 9.00002 5.18641 9H5.24891C5.24775 7.75525 5.48626 6.52215 5.95115 5.36796L7.65705 5.37895ZM7.65705 5.37895L7.65748 5.37899L7.67656 5.34087C8.35713 3.98107 9.40252 2.83737 10.6958 2.03766C11.9892 1.23795 13.4794 0.813758 15 0.8125C17.1715 0.812506 19.254 1.67512 20.7894 3.21056C22.3249 4.74602 23.1875 6.82854 23.1875 9C23.1875 11.1715 22.3249 13.254 20.7894 14.7894C19.254 16.3249 17.1715 17.1875 15 17.1875H6.75001C5.24159 17.1877 3.78966 16.6137 2.68915 15.5821C1.58864 14.5505 0.922073 13.1387 0.824853 11.6334C0.727632 10.1281 1.20705 8.64231 2.16571 7.47772C3.10157 6.34084 4.42564 5.59334 5.87976 5.37809L7.65705 5.37895ZM13.7606 6.85192L13.7607 6.85187C13.7709 6.84416 13.7844 6.83356 13.7984 6.82424L13.7985 6.82417C13.8072 6.81832 13.8172 6.81249 13.8249 6.80794L13.7606 6.85192ZM13.7606 6.85192C13.7596 6.85267 13.7579 6.85393 13.7558 6.8555M13.7606 6.85192L13.7558 6.8555M13.8665 6.78341L13.8667 6.78333C13.8762 6.77827 13.8866 6.77345 13.8948 6.76961C13.8973 6.76845 13.8996 6.76738 13.9017 6.76642L13.8665 6.78341ZM13.8665 6.78341C13.8567 6.78867 13.8466 6.79483 13.8385 6.79978C13.8361 6.80128 13.8338 6.80267 13.8318 6.80388L13.8665 6.78341ZM14.4848 6.72242L14.4849 6.72246C14.4971 6.72615 14.5092 6.73061 14.5192 6.7343C14.5215 6.73514 14.5237 6.73594 14.5257 6.73668L14.5043 6.79541M14.4848 6.72242L14.5902 6.76315C14.5815 6.75892 14.5706 6.75367 14.56 6.74928L14.5361 6.80703L14.56 6.74927C14.5508 6.74547 14.5405 6.74186 14.5325 6.73906C14.5298 6.73815 14.5275 6.73732 14.5255 6.7366L14.5043 6.79541M14.4848 6.72242C14.4758 6.71972 14.4655 6.71721 14.4576 6.71529C14.4548 6.71461 14.4523 6.714 14.4502 6.71349C14.448 6.7129 14.4455 6.71225 14.4428 6.71156C14.4327 6.70891 14.4202 6.70564 14.4079 6.70322M14.4848 6.72242L14.4079 6.70322M14.5043 6.79541C14.5018 6.7945 14.4993 6.79359 14.4969 6.79268C14.4869 6.78902 14.477 6.78537 14.4668 6.78227L14.5043 6.79541ZM13.7346 6.87146C13.7137 6.88857 13.6936 6.90673 13.6745 6.92585L10.4929 10.1074L13.7346 6.87146ZM13.7346 6.87146C13.7409 6.86631 13.7499 6.85975 13.7558 6.8555M13.7346 6.87146L13.7558 6.8555M14.3231 6.75373L14.3293 6.69153C14.3052 6.68915 14.2815 6.68818 14.2584 6.68791C14.2588 6.68792 14.2592 6.68794 14.2592 6.68794C14.2592 6.68794 14.2589 6.68792 14.258 6.68786L14.2578 6.68784C14.2565 6.68775 14.2531 6.6875 14.2494 6.6875C14.2456 6.6875 14.2422 6.68775 14.2409 6.68784L14.2407 6.68786C14.2403 6.68789 14.24 6.68791 14.2398 6.68792C14.2169 6.68819 14.1934 6.68917 14.1695 6.69152L14.3681 6.69707C14.3659 6.69675 14.3632 6.69632 14.3601 6.69582C14.3513 6.69441 14.3396 6.69253 14.3291 6.69152L14.3231 6.75373ZM14.3231 6.75373C14.3315 6.75454 14.3397 6.75585 14.3479 6.75717C14.3516 6.75776 14.3553 6.75836 14.359 6.7589C14.3625 6.75943 14.3661 6.75992 14.3697 6.76041C14.3784 6.7616 14.387 6.76279 14.3957 6.76451M14.3231 6.75373C14.3014 6.75158 14.2795 6.75066 14.2577 6.75041L14.3957 6.76451M14.3957 6.76451C14.4059 6.76652 14.4159 6.76914 14.4259 6.77175C14.4289 6.77252 14.4319 6.7733 14.4348 6.77405L14.3957 6.76451ZM14.3957 6.76451L14.4077 6.70319C14.4078 6.7032 14.4078 6.70321 14.4079 6.70322M14.3957 6.76451L14.4079 6.70322M14.0559 6.71156C14.0532 6.71226 14.0507 6.71291 14.0484 6.71349L14.1386 6.69582C14.1355 6.69632 14.1328 6.69675 14.1306 6.69707C14.1283 6.69741 14.1256 6.69779 14.1225 6.69821C14.1133 6.69947 14.1015 6.70109 14.0908 6.70322C14.0785 6.70564 14.066 6.7089 14.0559 6.71156ZM14.6039 6.76962C14.6014 6.76846 14.5991 6.76738 14.597 6.76642L14.7642 6.87159C14.7642 6.87154 14.7641 6.8715 14.7641 6.87145C14.7578 6.86628 14.7488 6.85973 14.7429 6.85549C14.7408 6.85392 14.7391 6.85267 14.7381 6.85191L14.738 6.85188C14.7361 6.85045 14.7341 6.84893 14.732 6.84733C14.7228 6.84028 14.7117 6.83184 14.7003 6.82423L14.7003 6.82417C14.6886 6.81637 14.6748 6.80861 14.6669 6.80388C14.6649 6.80267 14.6626 6.80128 14.6602 6.79978C14.6521 6.79483 14.642 6.78867 14.6322 6.78341L14.632 6.78333C14.6225 6.77827 14.6122 6.77346 14.6039 6.76962ZM14.8242 6.92585L14.78 6.97005L11.5977 11.2123L11.6419 11.2565L11.6419 11.2564L13.4369 9.46153V15C13.4369 15.2155 13.5225 15.4222 13.6748 15.5745C13.8272 15.7269 14.0339 15.8125 14.2494 15.8125C14.4649 15.8125 14.6715 15.7269 14.8239 15.5745C14.9763 15.4222 15.0619 15.2155 15.0619 15V9.46153L16.8568 11.2565C16.9323 11.3319 17.0218 11.3918 17.1204 11.4326C17.219 11.4734 17.3246 11.4945 17.4313 11.4945C17.538 11.4945 17.6437 11.4734 17.7423 11.4326C17.8408 11.3918 17.9304 11.3319 18.0058 11.2565C18.0813 11.181 18.1411 11.0915 18.182 10.9929C18.2228 10.8943 18.2438 10.7887 18.2438 10.682C18.2438 10.5753 18.2228 10.4696 18.182 10.371C18.1411 10.2725 18.0813 10.1829 18.0058 10.1074L14.8242 6.92585Z" fill="#0080F9" stroke="#0080F9" stroke-width="0.125"/>
</svg>
