<svg width="20" height="20" viewBox="0 0 20 20" fill="none" xmlns="http://www.w3.org/2000/svg">
<path opacity="0.2" d="M12.5 10.9375C12.5 12.3182 11.3807 13.4375 10 13.4375C8.61929 13.4375 7.5 12.3182 7.5 10.9375C7.5 9.55679 8.61929 8.4375 10 8.4375C11.3807 8.4375 12.5 9.55679 12.5 10.9375Z" fill="#5B6671" stroke="#5B6671" stroke-width="1.25"/>
<path opacity="0.2" d="M6.5625 6.5625C6.5625 7.59803 5.72303 8.4375 4.6875 8.4375C3.65197 8.4375 2.8125 7.59803 2.8125 6.5625C2.8125 5.52697 3.65197 4.6875 4.6875 4.6875C5.72303 4.6875 6.5625 5.52697 6.5625 6.5625Z" fill="#5B6671" stroke="#5B6671" stroke-width="1.25"/>
<path opacity="0.2" d="M17.1875 6.5625C17.1875 7.59803 16.348 8.4375 15.3125 8.4375C14.277 8.4375 13.4375 7.59803 13.4375 6.5625C13.4375 5.52697 14.277 4.6875 15.3125 4.6875C16.348 4.6875 17.1875 5.52697 17.1875 6.5625Z" fill="#5B6671" stroke="#5B6671" stroke-width="1.25"/>
<path d="M10 14.0625C11.7259 14.0625 13.125 12.6634 13.125 10.9375C13.125 9.21161 11.7259 7.8125 10 7.8125C8.27411 7.8125 6.875 9.21161 6.875 10.9375C6.875 12.6634 8.27411 14.0625 10 14.0625Z" stroke="#5B6671" stroke-width="1.25" stroke-linecap="round" stroke-linejoin="round"/>
<path d="M15.3125 9.0625C16.0403 9.0619 16.7582 9.23102 17.4092 9.55645C18.0602 9.88188 18.6263 10.3546 19.0626 10.9372" stroke="#5B6671" stroke-width="1.25" stroke-linecap="round" stroke-linejoin="round"/>
<path d="M0.9375 10.9373C1.37378 10.3548 1.93992 9.88196 2.59093 9.5565C3.24194 9.23104 3.95989 9.0619 4.68772 9.0625" stroke="#5B6671" stroke-width="1.25" stroke-linecap="round" stroke-linejoin="round"/>
<path d="M5.50293 16.8749C5.91349 16.0317 6.55287 15.3208 7.34809 14.8235C8.14331 14.3262 9.06233 14.0625 10.0002 14.0625C10.9381 14.0625 11.8572 14.3262 12.6524 14.8235C13.4476 15.3208 14.087 16.0316 14.4976 16.8749" stroke="#5B6671" stroke-width="1.25" stroke-linecap="round" stroke-linejoin="round"/>
<path d="M4.68752 9.0625C4.21318 9.06241 3.74865 8.92738 3.34817 8.67316C2.9477 8.41895 2.62781 8.05605 2.42587 7.62684C2.22392 7.19763 2.14825 6.71982 2.2077 6.24921C2.26714 5.77861 2.45924 5.33462 2.76157 4.96911C3.06389 4.60359 3.46397 4.33163 3.91508 4.18498C4.36618 4.03833 4.8497 4.02304 5.30917 4.1409C5.76864 4.25876 6.1851 4.50491 6.50991 4.8506C6.83472 5.19629 7.05449 5.62725 7.14354 6.09316" stroke="#5B6671" stroke-width="1.25" stroke-linecap="round" stroke-linejoin="round"/>
<path d="M12.8564 6.09314C12.9455 5.62715 13.1652 5.19611 13.49 4.85034C13.8149 4.50458 14.2313 4.25837 14.6909 4.14046C15.1504 4.02255 15.634 4.03782 16.0851 4.18447C16.5363 4.33113 16.9365 4.60312 17.2388 4.96868C17.5412 5.33424 17.7333 5.77829 17.7928 6.24896C17.8522 6.71963 17.7765 7.1975 17.5745 7.62675C17.3725 8.05601 17.0526 8.41894 16.652 8.67316C16.2515 8.92738 15.7869 9.06239 15.3125 9.06243" stroke="#5B6671" stroke-width="1.25" stroke-linecap="round" stroke-linejoin="round"/>
</svg>
