<svg width="33" height="32" viewBox="0 0 33 32" fill="none" xmlns="http://www.w3.org/2000/svg">
<path d="M29.4379 26.5297L29.4378 26.5298L29.4388 26.5313C29.5207 26.6734 29.5638 26.8345 29.5639 26.9985C29.564 27.1631 29.5208 27.3249 29.4385 27.4675C29.3563 27.6102 29.2379 27.7286 29.0954 27.8109C28.9528 27.8933 28.791 27.9367 28.6264 27.9366L4.37353 27.9364C4.20889 27.9364 4.04715 27.893 3.90459 27.8107C3.76203 27.7283 3.64366 27.6099 3.56141 27.4673C3.47916 27.3246 3.43592 27.1629 3.43604 26.9982C3.43615 26.8336 3.47961 26.672 3.56204 26.5295C5.42024 23.3292 8.39598 20.9288 11.9171 19.79L12.0485 19.7475L11.9298 19.6768C10.2476 18.6759 8.94058 17.1505 8.20938 15.3348C7.47818 13.5191 7.36327 11.5135 7.88229 9.62622C8.40132 7.73889 9.52558 6.07414 11.0824 4.88766C12.6392 3.70118 14.5425 3.05859 16.4999 3.05859C18.4573 3.05859 20.3605 3.70118 21.9174 4.88766C23.4742 6.07414 24.5984 7.73889 25.1175 9.62622C25.6365 11.5135 25.5216 13.5191 24.7904 15.3348C24.0592 17.1505 22.7521 18.6759 21.07 19.6768L20.9512 19.7475L21.0827 19.79C24.6039 20.9288 27.5797 23.3293 29.4379 26.5297Z" fill="#66B3FB" stroke="#66B3FB" stroke-width="0.125"/>
</svg>
