<svg width="20" height="20" viewBox="0 0 20 20" fill="none" xmlns="http://www.w3.org/2000/svg">
<path d="M13.375 9.375C13.375 11.239 11.864 12.75 10 12.75C8.13604 12.75 6.625 11.239 6.625 9.375C6.625 7.51104 8.13604 6 10 6C11.864 6 13.375 7.51104 13.375 9.375Z" fill="#0080F9" stroke="#0080F9" stroke-width="0.125"/>
<path d="M16.875 15.6875V15.6876L16.878 15.6874L16.8788 15.6874L16.9383 15.6846L16.9383 15.625L16.9375 4.375L16.9375 4.3125H16.875H3.125H3.0625V4.375V15.625V15.6875H3.125H4.2717H4.31259L4.32896 15.65C4.8365 14.4891 5.68789 13.5123 6.76773 12.851C7.64446 13.6693 8.79953 14.125 10 14.125C11.2005 14.125 12.3555 13.6693 13.2323 12.851C14.3121 13.5123 15.1635 14.4891 15.671 15.65L15.6874 15.6875H15.7283H16.875ZM2.28573 3.53573C2.50836 3.31309 2.81022 3.18786 3.12507 3.1875L16.875 3.1875C17.1898 3.18787 17.4916 3.3131 17.7143 3.53573C17.9369 3.75836 18.0621 4.06022 18.0625 4.37507V15.6249C18.0621 15.9398 17.9369 16.2416 17.7143 16.4643C17.4916 16.6869 17.1898 16.8121 16.8749 16.8125H3.12507C2.81022 16.8121 2.50836 16.6869 2.28573 16.4643C2.06309 16.2416 1.93786 15.9398 1.9375 15.6249L1.9375 4.37504C1.93787 4.0602 2.0631 3.75836 2.28573 3.53573Z" fill="#0080F9" stroke="#0080F9" stroke-width="0.125"/>
</svg>
