<!-- <svg width="113" height="632" viewBox="0 0 113 632" fill="none" xmlns="http://www.w3.org/2000/svg">
<path d="M250.5 334C250.5 443.868 236.457 543.315 213.765 615.278C202.418 651.263 188.917 680.347 173.949 700.424C158.975 720.511 142.597 731.5 125.5 731.5C108.403 731.5 92.0255 720.511 77.0506 700.424C62.0826 680.347 48.5818 651.263 37.235 615.278C14.5431 543.315 0.5 443.868 0.5 334C0.5 224.132 14.5431 124.685 37.235 52.7219C48.5818 16.7374 62.0826 -12.3469 77.0506 -32.4243C92.0255 -52.5109 108.403 -63.5 125.5 -63.5C142.597 -63.5 158.975 -52.5109 173.949 -32.4243C188.917 -12.3469 202.418 16.7374 213.765 52.7219C236.457 124.685 250.5 224.132 250.5 334Z" stroke="url(#paint0_linear_2_2)" stroke-opacity="0.3"/>
<path d="M168.5 293C168.5 391.556 159.044 480.765 143.764 545.322C136.123 577.604 127.032 603.694 116.955 621.701C106.855 639.75 95.8676 649.5 84.5 649.5C73.1324 649.5 62.1454 639.75 52.0451 621.701C41.9682 603.694 32.8771 577.604 25.236 545.322C9.95583 480.765 0.5 391.556 0.5 293C0.5 194.444 9.95583 105.235 25.236 40.678C32.8771 8.39579 41.9682 -17.694 52.0451 -35.701C62.1454 -53.7498 73.1324 -63.5 84.5 -63.5C95.8676 -63.5 106.855 -53.7498 116.955 -35.701C127.032 -17.694 136.123 8.39579 143.764 40.678C159.044 105.235 168.5 194.444 168.5 293Z" stroke="url(#paint1_linear_2_2)" stroke-opacity="0.3"/>
<path d="M168.5 240C168.5 323.936 164.975 399.918 159.277 454.909C156.427 482.408 153.036 504.641 149.276 519.991C147.394 527.67 145.427 533.599 143.402 537.598C142.389 539.598 141.375 541.089 140.371 542.073C139.368 543.056 138.412 543.5 137.5 543.5C136.588 543.5 135.632 543.056 134.629 542.073C133.625 541.089 132.611 539.598 131.598 537.598C129.573 533.599 127.606 527.67 125.724 519.991C121.964 504.641 118.573 482.408 115.723 454.909C110.025 399.918 106.5 323.936 106.5 240C106.5 156.064 110.025 80.0823 115.723 25.0911C118.573 -2.40765 121.964 -24.641 125.724 -39.9912C127.606 -47.6703 129.573 -53.5993 131.598 -57.5979C132.611 -59.5982 133.625 -61.089 134.629 -62.0734C135.632 -63.0563 136.588 -63.5 137.5 -63.5C138.412 -63.5 139.368 -63.0563 140.371 -62.0734C141.375 -61.089 142.389 -59.5982 143.402 -57.5979C145.427 -53.5993 147.394 -47.6703 149.276 -39.9912C153.036 -24.641 156.427 -2.40765 159.277 25.0911C164.975 80.0823 168.5 156.064 168.5 240Z" stroke="url(#paint2_linear_2_2)" stroke-opacity="0.3"/>
<path d="M168.5 264.5C168.5 355.194 162.233 437.289 152.105 496.701C147.04 526.41 141.014 550.424 134.334 566.998C130.993 575.287 127.5 581.687 123.902 586.006C120.3 590.33 116.652 592.5 113 592.5C109.348 592.5 105.7 590.33 102.098 586.006C98.5003 581.687 95.007 575.287 91.666 566.998C84.9859 550.424 78.9596 526.41 73.8949 496.701C63.7669 437.289 57.5 355.194 57.5 264.5C57.5 173.806 63.7669 91.7109 73.8949 32.2994C78.9596 2.58969 84.9859 -21.4236 91.666 -37.9979C95.007 -46.2874 98.5003 -52.6872 102.098 -57.006C105.7 -61.3298 109.348 -63.5 113 -63.5C116.652 -63.5 120.3 -61.3298 123.902 -57.006C127.5 -52.6872 130.993 -46.2874 134.334 -37.9979C141.014 -21.4236 147.04 2.58969 152.105 32.2994C162.233 91.7109 168.5 173.806 168.5 264.5Z" stroke="url(#paint3_linear_2_2)" stroke-opacity="0.3"/>
<defs>
<linearGradient id="paint1_linear_2_2" x1="84.5" y1="-64" x2="84.5" y2="650" gradientUnits="userSpaceOnUse">
<stop stop-color="white" stop-opacity="0.5"/>
<stop offset="1" stop-color="white" stop-opacity="0.25"/>
</linearGradient>
<linearGradient id="paint0_linear_2_2" x1="125.5" y1="-64" x2="125.5" y2="732" gradientUnits="userSpaceOnUse">
<stop stop-color="white" stop-opacity="0.5"/>
<stop offset="1" stop-color="white" stop-opacity="0.25"/>
</linearGradient>
<linearGradient id="paint2_linear_2_2" x1="137.5" y1="-64" x2="137.5" y2="544" gradientUnits="userSpaceOnUse">
<stop stop-color="white" stop-opacity="0.5"/>
<stop offset="1" stop-color="white" stop-opacity="0.25"/>
</linearGradient>
<linearGradient id="paint3_linear_2_2" x1="113" y1="-64" x2="113" y2="593" gradientUnits="userSpaceOnUse">
<stop stop-color="white" stop-opacity="0.5"/>
<stop offset="1" stop-color="white" stop-opacity="0.25"/>
</linearGradient>
</defs>
</svg> -->

<svg width="195" height="632" viewBox="0 0 195 632" fill="none" xmlns="http://www.w3.org/2000/svg">
<path d="M250.5 334C250.5 443.868 236.457 543.315 213.765 615.278C202.418 651.263 188.917 680.347 173.949 700.424C158.975 720.511 142.597 731.5 125.5 731.5C108.403 731.5 92.0255 720.511 77.0506 700.424C62.0826 680.347 48.5818 651.263 37.235 615.278C14.5431 543.315 0.5 443.868 0.5 334C0.5 224.132 14.5431 124.685 37.235 52.7219C48.5818 16.7374 62.0826 -12.3469 77.0506 -32.4243C92.0255 -52.5109 108.403 -63.5 125.5 -63.5C142.597 -63.5 158.975 -52.5109 173.949 -32.4243C188.917 -12.3469 202.418 16.7374 213.765 52.7219C236.457 124.685 250.5 224.132 250.5 334Z" stroke="url(#paint0_linear_2454_23045)" stroke-opacity="0.3"/>
<defs>
<linearGradient id="paint0_linear_2454_23045" x1="125.5" y1="-64" x2="125.5" y2="732" gradientUnits="userSpaceOnUse">
<stop stop-color="white" stop-opacity="0.5"/>
<stop offset="1" stop-color="white" stop-opacity="0.25"/>
</linearGradient>
</defs>
</svg>


