<svg width="44" height="44" viewBox="0 0 44 44" fill="none" xmlns="http://www.w3.org/2000/svg">
<rect x="1.25" y="1.25" width="41.5" height="41.5" rx="20.75" fill="#E6F2FE"/>
<rect x="1.25" y="1.25" width="41.5" height="41.5" rx="20.75" stroke="white" stroke-width="1.5"/>
<path d="M29.6192 30.5716V28.6668C29.6192 27.6565 29.2178 26.6875 28.5034 25.9731C27.789 25.2586 26.82 24.8573 25.8097 24.8573H18.1906C17.1803 24.8573 16.2113 25.2586 15.4969 25.9731C14.7825 26.6875 14.3811 27.6565 14.3811 28.6668V30.5716M25.8097 17.2382C25.8097 19.3422 24.1041 21.0478 22.0002 21.0478C19.8962 21.0478 18.1906 19.3422 18.1906 17.2382C18.1906 15.1343 19.8962 13.4287 22.0002 13.4287C24.1041 13.4287 25.8097 15.1343 25.8097 17.2382Z" stroke="#0080F9" stroke-width="2.66667" stroke-linecap="round" stroke-linejoin="round"/>
</svg>
