<svg width="24" height="24" viewBox="0 0 24 24" fill="none" xmlns="http://www.w3.org/2000/svg">
<g id="Icon/Arrow">
<g id="Group 4565">
<path id="chevron-left-solid" d="M4.23356 11.3779L10.6805 4.25736C10.8298 4.09257 11.0322 4 11.2432 4C11.4542 4 11.6566 4.09257 11.8059 4.25736L12.5584 5.08843C12.7072 5.25324 12.7908 5.47653 12.7908 5.70933C12.7908 5.94213 12.7072 6.16543 12.5584 6.33023L7.44778 12L12.5584 17.6698C12.7072 17.8346 12.7908 18.0579 12.7908 18.2907C12.7908 18.5235 12.7072 18.7468 12.5584 18.9116L11.8059 19.7426C11.6566 19.9074 11.4542 20 11.2432 20C11.0322 20 10.8298 19.9074 10.6805 19.7426L4.23356 12.6221C4.15952 12.5405 4.10078 12.4435 4.06071 12.3367C4.02063 12.23 4 12.1156 4 12C4 11.8844 4.02063 11.77 4.06071 11.6633C4.10078 11.5565 4.15952 11.4595 4.23356 11.3779Z" fill="#15803D"/>
<path id="chevron-left-solid_2" d="M11.4429 11.3779L17.8898 4.25736C18.0391 4.09257 18.2415 4 18.4525 4C18.6636 4 18.866 4.09257 19.0153 4.25736L19.7677 5.08843C19.9166 5.25324 20.0002 5.47653 20.0002 5.70933C20.0002 5.94213 19.9166 6.16543 19.7677 6.33023L14.6571 12L19.7677 17.6698C19.9166 17.8346 20.0002 18.0579 20.0002 18.2907C20.0002 18.5235 19.9166 18.7468 19.7677 18.9116L19.0153 19.7426C18.866 19.9074 18.6636 20 18.4525 20C18.2415 20 18.0391 19.9074 17.8898 19.7426L11.4429 12.6221C11.3689 12.5405 11.3101 12.4435 11.2701 12.3367C11.23 12.23 11.2094 12.1156 11.2094 12C11.2094 11.8844 11.23 11.77 11.2701 11.6633C11.3101 11.5565 11.3689 11.4595 11.4429 11.3779Z" fill="#A6BADB"/>
</g>
</g>
</svg>
