<svg width="18" height="21" viewBox="0 0 18 21" fill="none" xmlns="http://www.w3.org/2000/svg">
<g id="calendar">
<path id="Union" fill-rule="evenodd" clip-rule="evenodd" d="M5 0.25C5.41421 0.25 5.75 0.585786 5.75 1V2.5H12.25V1C12.25 0.585786 12.5858 0.25 13 0.25C13.4142 0.25 13.75 0.585786 13.75 1V2.5H14C16.2091 2.5 18 4.29086 18 6.5V7.25H0V6.5C0 4.29086 1.79086 2.5 4 2.5H4.25V1C4.25 0.585786 4.58579 0.25 5 0.25ZM18 8.75H0V17C0 19.2091 1.79086 21 4 21H14C16.2091 21 18 19.2091 18 17V8.75Z" fill="#2053A6"/>
</g>
</svg>
