<svg width="22" height="20" viewBox="0 0 22 20" fill="none" xmlns="http://www.w3.org/2000/svg">
<g id="folder upload">
<path id="Combo shape" fill-rule="evenodd" clip-rule="evenodd" d="M16 2C17.4865 2 18.7205 3.08114 18.9585 4.5H3V3C3 1.34315 4.34315 0 6 0H8.56917C9.23722 0 9.88616 0.222982 10.4131 0.633599L11.3535 1.3664C11.8805 1.77702 12.5294 2 13.1975 2H16ZM19.526 6H2.47391C1.20062 6 0.251513 7.17404 0.518304 8.41906L2.32239 16.8381C2.71759 18.6824 4.34745 20 6.2336 20H15.7663C17.6524 20 19.2823 18.6824 19.6775 16.8381L21.4816 8.41906C21.7484 7.17403 20.7992 6 19.526 6ZM10.25 11.8282C10.2033 11.8632 10.1586 11.902 10.1161 11.9445L8.53033 13.5303C8.23744 13.8232 7.76256 13.8232 7.46967 13.5303C7.17678 13.2374 7.17678 12.7625 7.46967 12.4696L9.05546 10.8838C10.1294 9.80989 11.8706 9.80988 12.9445 10.8838L14.5303 12.4696C14.8232 12.7625 14.8232 13.2374 14.5303 13.5303C14.2374 13.8232 13.7626 13.8232 13.4697 13.5303L11.8839 11.9445C11.8414 11.902 11.7967 11.8632 11.75 11.8282V15.9999C11.75 16.4142 11.4142 16.7499 11 16.7499C10.5858 16.7499 10.25 16.4142 10.25 15.9999V11.8282Z" fill="#2053A6"/>
</g>
</svg>
