<svg xmlns="http://www.w3.org/2000/svg" xmlns:xlink="http://www.w3.org/1999/xlink" width="103.682" height="24" viewBox="0 0 103.682 24"><defs><style>.a{fill:#1b325f;}.b{clip-path:url(#a);}.c{fill:#1a8922;}</style><clipPath id="a"><path d="M22.133,25.3H2.406A2.741,2.741,0,0,1-.4,22.642V3.958A2.741,2.741,0,0,1,2.406,1.3H22.119a2.741,2.741,0,0,1,2.806,2.658V22.629A2.722,2.722,0,0,1,22.133,25.3Z" transform="translate(0.4 -1.3)"/></clipPath></defs><g transform="translate(29.775 3.774)"><path class="a" d="M215.369,33.4h4.1l5.655,16.312H220.57l-.992-3.189h-4.337l-.964,3.189H209.7Zm3.486,10.133-1.446-5.059-1.516,5.059h2.962Z" transform="translate(-209.7 -33.301)"/><path class="a" d="M328,49.712V33.4h11.182v3.911h-6.7v2.707h5.47v3.628h-5.47v6.066Z" transform="translate(-311.235 -33.301)"/><path class="a" d="M407.269,33.4h4.1l5.655,16.312H412.47l-.992-3.189h-4.337l-.964,3.189H401.6Zm3.5,10.133-1.46-5.059-1.516,5.059h2.976Z" transform="translate(-374.404 -33.301)"/><path class="a" d="M521.046,48.332a7.823,7.823,0,0,1-1.8.666,8.422,8.422,0,0,1-2.012.227,7.89,7.89,0,0,1-3.373-.694,8.229,8.229,0,0,1-4.266-4.507,8.244,8.244,0,0,1-.6-3.075,8.038,8.038,0,0,1,.624-3.1,8.335,8.335,0,0,1,4.365-4.464,8.11,8.11,0,0,1,3.345-.68,7.7,7.7,0,0,1,3.373.723,8.458,8.458,0,0,1,4.266,4.563,8.156,8.156,0,0,1,.581,3.061,8.065,8.065,0,0,1-.539,2.905,7.952,7.952,0,0,1-1.531,2.494l2.48,2.693h-4.181Zm-3.77-3.089a3.578,3.578,0,0,0,.85-.085l-2.693-2.948h4.181l.893.992a4.413,4.413,0,0,0,.368-1.105,6.493,6.493,0,0,0,.113-1.176,5.538,5.538,0,0,0-.227-1.6,4.118,4.118,0,0,0-.694-1.36,3.352,3.352,0,0,0-1.176-.95,3.556,3.556,0,0,0-1.644-.354,3.469,3.469,0,0,0-1.672.383,3.582,3.582,0,0,0-1.162.992,4.029,4.029,0,0,0-.68,1.375,5.848,5.848,0,0,0-.213,1.573,5.535,5.535,0,0,0,.227,1.6,4.119,4.119,0,0,0,.694,1.361,3.3,3.3,0,0,0,1.162.95A3.677,3.677,0,0,0,517.276,45.242Z" transform="translate(-466.583 -32.7)"/><path class="a" d="M625.747,33.4l2.919,7.058,2.99-7.058h4.875l-5.626,10.912v5.4h-4.464V44.27L620.9,33.4Z" transform="translate(-562.625 -33.301)"/></g><g transform="translate(0 0)"><g class="b" transform="translate(0 0)"><path class="a" d="M6.757-.187A24.9,24.9,0,0,0,2.6,6.109,48.392,48.392,0,0,0-.357,12.954a.637.637,0,0,1-.043.094V-.079C-.4-.173-.386-.2-.272-.2,2.066-.187,4.4-.187,6.757-.187Z" transform="translate(0.4 -0.001)"/><path class="a" d="M22.5,104.884c5.555-.081,11.125,1.812,12.811,10.094H20.3C20.881,111.6,21.164,108.146,22.5,104.884Z" transform="translate(-17.366 -90.978)"/><path class="a" d="M52.932,35.887c-2.48-1.946-5.371-2.443-8.432-2.456A29.811,29.811,0,0,1,48.171,26.8,37.5,37.5,0,0,1,52.932,35.887Z" transform="translate(-38.137 -23.377)"/></g><g class="b" transform="translate(0 0)"><path class="c" d="M104.715-.1V24.088h-3.245a6.253,6.253,0,0,0,.057-3.812,41.558,41.558,0,0,0-2.182-7.436A56.9,56.9,0,0,0,96.4,6.289,32.05,32.05,0,0,0,92.683.343L92.3-.1Z" transform="translate(-79.163 -0.088)"/></g></g></svg>