<svg xmlns="http://www.w3.org/2000/svg" xmlns:xlink="http://www.w3.org/1999/xlink" width="25.325" height="24" viewBox="0 0 25.325 24"><defs><style>.a{clip-path:url(#a);}.b{fill:#1b325f;}.c{fill:#1a8922;}</style><clipPath id="a"><path d="M22.133,25.3H2.406A2.741,2.741,0,0,1-.4,22.642V3.958A2.741,2.741,0,0,1,2.406,1.3H22.119a2.741,2.741,0,0,1,2.806,2.658V22.629A2.722,2.722,0,0,1,22.133,25.3Z" transform="translate(0.4 -1.3)"/></clipPath></defs><g transform="translate(0 0)"><g class="a" transform="translate(0 0)"><path class="b" d="M6.757-.187A24.9,24.9,0,0,0,2.6,6.109,48.392,48.392,0,0,0-.357,12.954a.637.637,0,0,1-.043.094V-.079C-.4-.173-.386-.2-.272-.2,2.066-.187,4.4-.187,6.757-.187Z" transform="translate(0.4 -0.001)"/><path class="b" d="M22.5,104.884c5.555-.081,11.125,1.812,12.811,10.094H20.3C20.881,111.6,21.164,108.146,22.5,104.884Z" transform="translate(-17.366 -90.978)"/><path class="b" d="M52.932,35.887c-2.48-1.946-5.371-2.443-8.432-2.456A29.811,29.811,0,0,1,48.171,26.8,37.5,37.5,0,0,1,52.932,35.887Z" transform="translate(-38.137 -23.377)"/></g><g class="a" transform="translate(0 0)"><path class="c" d="M104.715-.1V24.088h-3.245a6.253,6.253,0,0,0,.057-3.812,41.558,41.558,0,0,0-2.182-7.436A56.9,56.9,0,0,0,96.4,6.289,32.05,32.05,0,0,0,92.683.343L92.3-.1Z" transform="translate(-79.163 -0.088)"/></g></g></svg>