<svg width="20" height="20" viewBox="0 0 20 20" fill="none" xmlns="http://www.w3.org/2000/svg">
<g id="Huge-icon/interface/bulk/remove-circle">
<path id="Vector 281" opacity="0.4" d="M18.3334 10.0003C18.3334 14.6027 14.6025 18.3337 10.0001 18.3337C5.39771 18.3337 1.66675 14.6027 1.66675 10.0003C1.66675 5.39795 5.39771 1.66699 10.0001 1.66699C14.6025 1.66699 18.3334 5.39795 18.3334 10.0003Z" fill="#EF4444"/>
<path id="Union" fill-rule="evenodd" clip-rule="evenodd" d="M11.9152 12.7986C12.1593 13.0426 12.555 13.0426 12.7991 12.7986C13.0431 12.5545 13.0431 12.1588 12.7991 11.9147L10.884 9.99965L12.7991 8.08463C13.0431 7.84055 13.0431 7.44482 12.7991 7.20075C12.555 6.95667 12.1592 6.95667 11.9152 7.20075L10.0001 9.11577L8.08502 7.20064C7.84094 6.95656 7.44521 6.95656 7.20114 7.20064C6.95706 7.44471 6.95706 7.84044 7.20114 8.08452L9.11627 9.99965L7.20112 11.9148C6.95705 12.1589 6.95705 12.5546 7.20112 12.7987C7.4452 13.0428 7.84093 13.0428 8.08501 12.7987L10.0001 10.8835L11.9152 12.7986Z" fill="#EF4444"/>
</g>
</svg>
