<svg xmlns="http://www.w3.org/2000/svg" width="82.659" height="94.14" viewBox="0 0 82.659 94.14"><defs><style>.a{fill:#ccc;}.b{fill:#e6e6e6;}.c{fill:#fff;}</style></defs><g transform="translate(-137.836 -95.678)"><path class="a" d="M516.887,409.707l-29.021,7.473a1.4,1.4,0,0,1-.7-2.715l29.021-7.473a1.4,1.4,0,1,1,.7,2.715Z" transform="translate(-347.35 -267.329)"/><path class="a" d="M527.113,422.014l-34.621,8.915a1.4,1.4,0,0,1-.7-2.715l34.621-8.915a1.4,1.4,0,0,1,.7,2.715Z" transform="translate(-350.795 -276.497)"/><path class="b" d="M556.715,328.855H490.894a8.429,8.429,0,0,1-8.419-8.419v-77.3a8.429,8.429,0,0,1,8.419-8.419H552.13l13,10.365v75.356A8.429,8.429,0,0,1,556.715,328.855Z" transform="translate(-344.639 -139.037)"/><path class="c" d="M497.969,244.215a6,6,0,0,0-6,6v77.3a6,6,0,0,0,6,6h65.821a6,6,0,0,0,6-6V253.324l-11.429-9.109Z" transform="translate(-351.715 -146.113)"/><path class="a" d="M631.7,324.132H601.737a1.4,1.4,0,1,1,0-2.8H631.7a1.4,1.4,0,1,1,0,2.8Z" transform="translate(-432.43 -203.553)"/><path class="a" d="M637.487,342.679H601.737a1.4,1.4,0,1,1,0-2.8h35.751a1.4,1.4,0,1,1,0,2.8Z" transform="translate(-432.43 -217.369)"/><path class="a" d="M631.707,404.443H601.741a1.4,1.4,0,1,0,0,2.8h29.967a1.4,1.4,0,1,0,0-2.8Z" transform="translate(-432.433 -265.464)"/><path class="a" d="M637.491,422.993h-35.75a1.4,1.4,0,1,0,0,2.8h35.75a1.4,1.4,0,0,0,0-2.8Z" transform="translate(-432.433 -279.281)"/><path class="a" d="M631.7,490.367H601.737a1.4,1.4,0,1,1,0-2.8H631.7a1.4,1.4,0,1,1,0,2.8Z" transform="translate(-432.43 -327.378)"/><path class="a" d="M637.487,508.914H601.737a1.4,1.4,0,1,1,0-2.8h35.751a1.4,1.4,0,1,1,0,2.8Z" transform="translate(-432.43 -341.194)"/><circle class="a" cx="4.955" cy="4.955" r="4.955" transform="translate(151.872 116.587)"/><path class="a" d="M549.4,404.742a4.955,4.955,0,0,1-4.954,4.957,1.066,1.066,0,0,1-.128-.005,4.955,4.955,0,1,1,5.082-4.952Z" transform="translate(-387.108 -261.995)"/><circle class="a" cx="4.955" cy="4.955" r="4.955" transform="translate(151.872 158.998)"/><path class="a" d="M767.553,245.985H757.366a2.8,2.8,0,0,1-2.8-2.8v-7.524a.175.175,0,0,1,.284-.137l12.815,10.153a.175.175,0,0,1-.109.313Z" transform="translate(-547.311 -139.609)"/><path class="a" d="M561.246,404.949a4.955,4.955,0,0,1-4.954,4.957,1.066,1.066,0,0,1-.128-.005,10.728,10.728,0,0,1,.962-9.838A4.958,4.958,0,0,1,561.246,404.949Z" transform="translate(-398.955 -262.201)"/><path class="a" d="M600.334,405.846a1.406,1.406,0,0,1,1.4-1.4H609.2a10.605,10.605,0,0,1,.921,2.8h-8.388a1.4,1.4,0,0,1-1.4-1.4Z" transform="translate(-432.43 -265.464)"/><path class="a" d="M610.3,422.993a10.7,10.7,0,0,1-.372,2.8h-8.189a1.4,1.4,0,1,1,0-2.8Z" transform="translate(-432.433 -279.281)"/></g></svg>