<svg width="13" height="23" viewBox="0 0 13 23" fill="none" xmlns="http://www.w3.org/2000/svg">
<path d="M1.93922 2.4407C0.969642 3.49008 0.362335 5.01873 0.385917 6.45659C0.43516 9.46128 1.77069 10.5987 3.90643 14.7341C4.67577 16.5538 5.47873 18.4793 6.24241 21.6684C6.34854 22.1388 6.45205 22.5758 6.49993 22.6136C6.54778 22.6515 6.65132 22.213 6.75745 21.7426C7.52113 18.5535 8.32408 16.6295 9.09342 14.8098C11.2292 10.6744 12.5647 9.53698 12.6139 6.53229C12.6375 5.09443 12.0287 3.56425 11.0591 2.51488C9.95155 1.31614 8.28097 0.42898 6.49993 0.391882C4.71888 0.35476 3.0468 1.24196 1.93922 2.4407Z" fill="#FF4646" stroke="#D73534" stroke-width="1.26462"/>
<path d="M6.49991 8.94053C7.79184 8.94053 8.83918 7.87844 8.83918 6.56828C8.83918 5.25812 7.79184 4.19604 6.49991 4.19604C5.20798 4.19604 4.16064 5.25812 4.16064 6.56828C4.16064 7.87844 5.20798 8.94053 6.49991 8.94053Z" fill="#590000"/>
</svg>
